<svg id="Layer_1" data-name="Layer 1" xmlns="http://www.w3.org/2000/svg" viewBox="0 0 1198.5 411"><defs><style>.cls-1{fill:#fcfe00;}.cls-2{fill:#1f2326;}.cls-3{fill:#fdfdfb;}.cls-4,.cls-5{fill:none;stroke:#1f2326;stroke-miterlimit:10;}.cls-4{stroke-width:3px;}.cls-5{stroke-width:2px;}</style></defs><title>how-it-works</title><polygon class="cls-1" points="1183.5 102.5 1183.5 333.5 607.5 333.5 607.5 348.5 1198.5 348.5 1198.5 102.5 1183.5 102.5"/><polygon class="cls-1" points="1163 82.5 1163 313 587.5 313 587.5 328.5 1178.5 328.5 1178.5 82.5 1163 82.5"/><rect class="cls-1" x="567" y="33" width="591" height="275"/><rect class="cls-2" x="597" y="92" width="136" height="62"/><path class="cls-3" d="M619.50781,116.793v2.29394h-3.876v10.66114h-2.72461V119.08691h-3.89356V116.793Z"/><path class="cls-3" d="M622.05664,120.168v5.77441a3.04207,3.04207,0,0,0,.19238,1.23047,1.33089,1.33089,0,0,0,1.33789.72949,1.74739,1.74739,0,0,0,1.749-1.03711,3.77368,3.77368,0,0,0,.24511-1.48535V120.168h2.54v9.58008h-2.43457v-1.35352c-.02343.0293-.082.11719-.1748.26367a1.78653,1.78653,0,0,1-.333.38672,3.48,3.48,0,0,1-1.13574.7207,3.85782,3.85782,0,0,1-1.28418.19336,2.85981,2.85981,0,0,1-2.85645-1.52929,5.85383,5.85383,0,0,1-.41211-2.48731V120.168Z"/><path class="cls-3" d="M638.28125,120.71777a3.16972,3.16972,0,0,1,.94043,2.57911v6.45117h-2.56641V123.9209a2.67688,2.67688,0,0,0-.20019-1.16016,1.41076,1.41076,0,0,0-1.39649-.73828,1.73046,1.73046,0,0,0-1.73632,1.08106,3.73367,3.73367,0,0,0-.24414,1.459v5.18555h-2.50489v-9.5625H632.999V121.583a4.25017,4.25017,0,0,1,.91016-1.06348,3.15481,3.15481,0,0,1,1.95215-.58008A3.675,3.675,0,0,1,638.28125,120.71777Z"/><path class="cls-3" d="M649.27637,120.71777a3.16972,3.16972,0,0,1,.94043,2.57911v6.45117h-2.56641V123.9209a2.677,2.677,0,0,0-.20019-1.16016,1.41076,1.41076,0,0,0-1.39649-.73828,1.73049,1.73049,0,0,0-1.73633,1.08106,3.73385,3.73385,0,0,0-.24414,1.459v5.18555h-2.50488v-9.5625h2.42578V121.583a4.25,4.25,0,0,1,.91016-1.06348,3.15481,3.15481,0,0,1,1.95215-.58008A3.675,3.675,0,0,1,649.27637,120.71777Z"/><path class="cls-3" d="M658.78906,120.3623a3.9015,3.9015,0,0,1,1.65528,1.417,4.7033,4.7033,0,0,1,.76269,1.98047,12.2,12.2,0,0,1,.083,1.90136H654.3125a2.29925,2.29925,0,0,0,1.00195,2.02149,2.54471,2.54471,0,0,0,1.38086.36035,2.1199,2.1199,0,0,0,1.39063-.43945,2.08453,2.08453,0,0,0,.51562-.65918h2.55762a3.12751,3.12751,0,0,1-.92871,1.73144,4.656,4.656,0,0,1-3.60449,1.39746,5.22023,5.22023,0,0,1-3.374-1.17871,4.64286,4.64286,0,0,1-1.46191-3.835,5.18392,5.18392,0,0,1,1.31934-3.81738,4.61945,4.61945,0,0,1,3.42578-1.3291A5.467,5.467,0,0,1,658.78906,120.3623Zm-3.748,2.16407a2.60386,2.60386,0,0,0-.667,1.48242h4.31543a2.091,2.091,0,0,0-.667-1.51367,2.19855,2.19855,0,0,0-1.48633-.5166A1.9866,1.9866,0,0,0,655.041,122.52637Z"/><path class="cls-3" d="M665.11426,129.74805h-2.50488V116.793h2.50488Z"/><path class="cls-3" d="M681.458,124.14062a4.9389,4.9389,0,0,1-3.249.94922h-2.69726v4.65821h-2.68945V116.793h5.5625a4.49025,4.49025,0,0,1,3.06738,1.002,3.91156,3.91156,0,0,1,1.14355,3.10254A4.01843,4.01843,0,0,1,681.458,124.14062Zm-2.06641-4.667a2.17851,2.17851,0,0,0-1.44043-.43066h-2.43945v3.81445h2.43945a2.06776,2.06776,0,0,0,1.44043-.46582,1.90142,1.90142,0,0,0,.51465-1.47656A1.786,1.786,0,0,0,679.3916,119.47363Z"/><path class="cls-3" d="M689.88574,119.94434c.03223.00293.10449.00683.21582.01269v2.56641q-.2373-.02637-.42187-.03516t-.29883-.00879a2.07751,2.07751,0,0,0-2.03027.98438,3.82939,3.82939,0,0,0-.29,1.70508v4.5791h-2.52246V120.168h2.39062v1.66992a5.2961,5.2961,0,0,1,1.01074-1.30957,2.75156,2.75156,0,0,1,1.82813-.58887C689.81445,119.93945,689.85352,119.94141,689.88574,119.94434Z"/><path class="cls-3" d="M699.55859,128.57617a5.27793,5.27793,0,0,1-7.36523,0,5.94354,5.94354,0,0,1,0-7.19629,5.22221,5.22221,0,0,1,7.36523,0,5.94354,5.94354,0,0,1,0,7.19629Zm-2.0039-1.38379a4.47256,4.47256,0,0,0,0-4.43652,2.22458,2.22458,0,0,0-3.37891,0,4.4406,4.4406,0,0,0,0,4.43652,2.21913,2.21913,0,0,0,3.37891,0Z"/><path class="cls-3" d="M701.61035,129.74805l3.26953-4.85157-3.1289-4.71093h3.06836l1.59961,2.77539,1.56445-2.77539h2.97851l-3.14648,4.667,3.26953,4.89551h-3.11914l-1.64941-2.87989-1.665,2.87989Z"/><path class="cls-3" d="M712.95313,131.585l.3164.01758a3.94721,3.94721,0,0,0,.70313-.02637,1.26224,1.26224,0,0,0,.5625-.20215,1.35144,1.35144,0,0,0,.4082-.624,1.50854,1.50854,0,0,0,.16309-.58008L711.58594,120.168h2.78711l2.09179,7.06641,1.97657-7.06641h2.66406l-3.28516,9.42187a13.27774,13.27774,0,0,1-1.50586,3.37989,2.86229,2.86229,0,0,1-2.21777.65429c-.22266,0-.40137-.001-.53613-.0039q-.20362-.00439-.60742-.03125Z"/><rect class="cls-2" x="794" y="92" width="136" height="62"/><path class="cls-3" d="M830.48242,116.793h2.66309v5.33789l5.00586-5.33789h3.49707l-5.31641,5.32812,5.58887,7.627h-3.48047l-3.99121-5.65528-1.30371,1.32227v4.333h-2.66309Z"/><path class="cls-3" d="M845.73145,120.168v5.77441a3.04207,3.04207,0,0,0,.19238,1.23047,1.33089,1.33089,0,0,0,1.33789.72949,1.74737,1.74737,0,0,0,1.749-1.03711,3.77348,3.77348,0,0,0,.24512-1.48535V120.168h2.54v9.58008h-2.43457v-1.35352c-.02344.0293-.082.11719-.17481.26367a1.78648,1.78648,0,0,1-.333.38672,3.48006,3.48006,0,0,1-1.13575.7207,3.85778,3.85778,0,0,1-1.28418.19336,2.85979,2.85979,0,0,1-2.85644-1.52929,5.85383,5.85383,0,0,1-.41211-2.48731V120.168Z"/><path class="cls-3" d="M862.41016,121.31934a5.50455,5.50455,0,0,1,1.07519,3.51562,6.15679,6.15679,0,0,1-1.06055,3.7002,3.84764,3.84764,0,0,1-4.876.99316,3.81413,3.81413,0,0,1-.93653-.98437v1.2041h-2.46972v-12.9375h2.50488V121.416a3.66087,3.66087,0,0,1,1.05274-1.01954,3.14237,3.14237,0,0,1,1.73339-.43945A3.57851,3.57851,0,0,1,862.41016,121.31934Zm-2.09375,5.83593a3.54969,3.54969,0,0,0,.541-2.05664,4.61245,4.61245,0,0,0-.26562-1.6875,1.85158,1.85158,0,0,0-1.86133-1.26562,1.87925,1.87925,0,0,0-1.8877,1.23926,4.627,4.627,0,0,0-.26562,1.70507,3.543,3.543,0,0,0,.5498,2.03907,1.88556,1.88556,0,0,0,1.67481.80859A1.737,1.737,0,0,0,860.31641,127.15527Z"/><path class="cls-3" d="M871.46875,120.3623a3.90142,3.90142,0,0,1,1.65527,1.417,4.70318,4.70318,0,0,1,.7627,1.98047,12.2,12.2,0,0,1,.083,1.90136h-6.97754a2.29923,2.29923,0,0,0,1.00195,2.02149,2.54466,2.54466,0,0,0,1.38086.36035,2.11992,2.11992,0,0,0,1.39063-.43945,2.08467,2.08467,0,0,0,.51562-.65918h2.55762a3.12764,3.12764,0,0,1-.92871,1.73144,4.65606,4.65606,0,0,1-3.6045,1.39746,5.22022,5.22022,0,0,1-3.374-1.17871,4.64286,4.64286,0,0,1-1.46191-3.835,5.184,5.184,0,0,1,1.31933-3.81738,4.61946,4.61946,0,0,1,3.42578-1.3291A5.46706,5.46706,0,0,1,871.46875,120.3623Zm-3.74805,2.16407a2.60392,2.60392,0,0,0-.667,1.48242h4.31543a2.09106,2.09106,0,0,0-.667-1.51367,2.19857,2.19857,0,0,0-1.48633-.5166A1.98664,1.98664,0,0,0,867.7207,122.52637Z"/><path class="cls-3" d="M877.794,129.74805h-2.50489V116.793H877.794Z"/><path class="cls-3" d="M886.48047,120.3623a3.90142,3.90142,0,0,1,1.65527,1.417,4.70318,4.70318,0,0,1,.7627,1.98047,12.2,12.2,0,0,1,.083,1.90136h-6.97754a2.29923,2.29923,0,0,0,1.00195,2.02149,2.54466,2.54466,0,0,0,1.38086.36035,2.11987,2.11987,0,0,0,1.39062-.43945,2.08455,2.08455,0,0,0,.51563-.65918h2.55762a3.12764,3.12764,0,0,1-.92871,1.73144,4.65607,4.65607,0,0,1-3.6045,1.39746,5.22022,5.22022,0,0,1-3.374-1.17871,4.64286,4.64286,0,0,1-1.46191-3.835,5.184,5.184,0,0,1,1.31933-3.81738,4.61945,4.61945,0,0,1,3.42578-1.3291A5.46706,5.46706,0,0,1,886.48047,120.3623Zm-3.748,2.16407a2.60392,2.60392,0,0,0-.667,1.48242h4.31543a2.09106,2.09106,0,0,0-.667-1.51367,2.19857,2.19857,0,0,0-1.48633-.5166A1.98663,1.98663,0,0,0,882.73242,122.52637Z"/><path class="cls-3" d="M889.26367,122.04v-1.78418h1.33594V117.584h2.47852v2.67188h1.55566V122.04h-1.55566v5.0625a1.14194,1.14194,0,0,0,.14941.73437,1.64681,1.64681,0,0,0,.91406.14454c.07617,0,.15625-.001.24219-.00391.084-.00293.168-.00781.25-.01367v1.87207l-1.18652.04394a3.18417,3.18417,0,0,1-2.42579-.61523,1.83178,1.83178,0,0,1-.42187-1.32715V122.04Z"/><rect class="cls-3" x="796.5" y="2.5" width="131" height="57"/><path class="cls-2" d="M925,5V57H799V5H925m5-5H794V62H930V0Z"/><path class="cls-2" d="M820.52832,24.83691h2.46094v6.98926l3.15918-3.61426h3.11523l-3.43359,3.56934,3.5664,5.9668h-3.04882l-2.32129-4.09278-1.03711,1.07813v3.01465h-2.46094Z"/><path class="cls-2" d="M832.332,33.83691a2.87969,2.87969,0,0,0,.24512,1.26563,1.68233,1.68233,0,0,0,1.65723.92285,1.83445,1.83445,0,0,0,1.28515-.50488,1.88165,1.88165,0,0,0,.54785-1.45508,1.639,1.639,0,0,0-1.0166-1.67871,5.14551,5.14551,0,0,0-1.82226-.23731v-1.793a4.71294,4.71294,0,0,0,1.69921-.23731,1.46667,1.46667,0,0,0,.832-1.49414,1.67327,1.67327,0,0,0-.42481-1.18652,1.55577,1.55577,0,0,0-1.19726-.457,1.514,1.514,0,0,0-1.30176.5625,2.39239,2.39239,0,0,0-.39844,1.50293h-2.33789a6.28657,6.28657,0,0,1,.32519-1.80176,4.03891,4.03891,0,0,1,.96583-1.37989,3.35936,3.35936,0,0,1,1.167-.68554,5.05016,5.05016,0,0,1,1.65918-.23731,4.41418,4.41418,0,0,1,2.94629.94532,3.14771,3.14771,0,0,1,1.11914,2.53515,2.80326,2.80326,0,0,1-.668,1.89844,2.28106,2.28106,0,0,1-.87891.65918,1.80782,1.80782,0,0,1,.98438.58887,3.14477,3.14477,0,0,1,.958,2.42578,4.08978,4.08978,0,0,1-1.11914,2.84375,4.26638,4.26638,0,0,1-3.31445,1.22558,4.01015,4.01015,0,0,1-3.75879-1.7666,5.25534,5.25534,0,0,1-.61426-2.46094Z"/><path class="cls-2" d="M842.51855,34.68945a1.6651,1.6651,0,0,0,.34473.94922,2.33382,2.33382,0,0,0,1.73047.501,2.64514,2.64514,0,0,0,1.17871-.21973.73574.73574,0,0,0,.085-1.30078,14.36335,14.36335,0,0,0-2.62012-.75586,5.44238,5.44238,0,0,1-2.30078-1.01074,2.19131,2.19131,0,0,1-.668-1.72266,2.98278,2.98278,0,0,1,1.04395-2.28027,4.19689,4.19689,0,0,1,2.9375-.9541,5.40076,5.40076,0,0,1,2.92871.71679,3.06642,3.06642,0,0,1,1.29883,2.47364h-2.50488a1.47345,1.47345,0,0,0-.27344-.76465,1.72172,1.72172,0,0,0-1.41016-.50977,2.03323,2.03323,0,0,0-1.168.25489.7342.7342,0,0,0-.34765.59765.65336.65336,0,0,0,.37011.624,16.04726,16.04726,0,0,0,2.61524.69433,4.797,4.797,0,0,1,2.24414,1.06348,2.41449,2.41449,0,0,1,.73828,1.80176,2.90848,2.90848,0,0,1-1.06152,2.32519,6.37939,6.37939,0,0,1-6.62207-.05273,3.09928,3.09928,0,0,1-1.0791-2.43067Z"/><path class="cls-2" d="M858.83594,24.793h3.0625l4.584,12.95508h-2.93554l-.85547-2.66309H857.9209l-.87793,2.66309h-2.832Zm-.17871,8.05957h3.31738l-1.63672-5.09766Z"/><path class="cls-2" d="M872.667,28.15918a3.00985,3.00985,0,0,1,1.47461,1.38867V28.168H876.585v9.08789a5.08972,5.08972,0,0,1-.624,2.79492q-1.07228,1.61719-4.11328,1.61719a5.60493,5.60493,0,0,1-2.99707-.7207,2.659,2.659,0,0,1-1.28321-2.15332H870.292a1.128,1.128,0,0,0,.34278.63281,2.117,2.117,0,0,0,1.3623.34277,1.83012,1.83012,0,0,0,1.81055-.90527,4.58507,4.58507,0,0,0,.29883-1.95117v-.61524a3.05462,3.05462,0,0,1-.77344.92285,3.11013,3.11013,0,0,1-1.94238.57129,3.673,3.673,0,0,1-2.94825-1.2959,5.23757,5.23757,0,0,1-1.10351-3.51171,5.92312,5.92312,0,0,1,1.0625-3.58985,3.50685,3.50685,0,0,1,3.01074-1.45508A3.293,3.293,0,0,1,872.667,28.15918Zm.85352,6.86914a3.084,3.084,0,0,0,.60351-2.11426,3.24646,3.24646,0,0,0-.57324-2.07422,1.87078,1.87078,0,0,0-1.53613-.71191,1.80983,1.80983,0,0,0-1.81152,1.23926,4.41613,4.41613,0,0,0-.2627,1.626,3.71044,3.71044,0,0,0,.28027,1.48536,1.825,1.825,0,0,0,1.82032,1.21289A1.92557,1.92557,0,0,0,873.52051,35.02832Z"/><path class="cls-2" d="M885.166,28.3623a3.90153,3.90153,0,0,1,1.65527,1.417,4.70317,4.70317,0,0,1,.76269,1.98047,12.19753,12.19753,0,0,1,.083,1.90136h-6.97754a2.29926,2.29926,0,0,0,1.002,2.02149,2.54466,2.54466,0,0,0,1.38086.36035,2.11987,2.11987,0,0,0,1.39062-.43945,2.08469,2.08469,0,0,0,.51563-.65918h2.55761a3.12751,3.12751,0,0,1-.92871,1.73144,4.656,4.656,0,0,1-3.60449,1.39746,5.22022,5.22022,0,0,1-3.374-1.17871,4.64287,4.64287,0,0,1-1.46192-3.835,5.184,5.184,0,0,1,1.31934-3.81738,4.61945,4.61945,0,0,1,3.42578-1.3291A5.46709,5.46709,0,0,1,885.166,28.3623ZM881.418,30.52637a2.60385,2.60385,0,0,0-.667,1.48242h4.31543a2.091,2.091,0,0,0-.667-1.51367,2.19854,2.19854,0,0,0-1.48632-.5166A1.98663,1.98663,0,0,0,881.418,30.52637Z"/><path class="cls-2" d="M896.65918,28.71777a3.16972,3.16972,0,0,1,.94043,2.57911v6.45117H895.0332V31.9209a2.67688,2.67688,0,0,0-.20019-1.16016,1.41076,1.41076,0,0,0-1.39649-.73828,1.73046,1.73046,0,0,0-1.73632,1.08106,3.73365,3.73365,0,0,0-.24415,1.459v5.18555h-2.50488v-9.5625H891.377V29.583a4.25017,4.25017,0,0,1,.91016-1.06348,3.15481,3.15481,0,0,1,1.95215-.58008A3.675,3.675,0,0,1,896.65918,28.71777Z"/><path class="cls-2" d="M898.94434,30.04V28.25586h1.33593V25.584h2.47852v2.67188h1.55566V30.04h-1.55566v5.0625a1.14194,1.14194,0,0,0,.14941.73437,1.64683,1.64683,0,0,0,.91407.14454c.07617,0,.15625-.001.24218-.00391.084-.00293.168-.00781.25-.01367v1.87207l-1.18652.04394a3.18414,3.18414,0,0,1-2.42578-.61523,1.83178,1.83178,0,0,1-.42188-1.32715V30.04Z"/><rect class="cls-2" x="794" y="216" width="136" height="62"/><path class="cls-3" d="M822.96289,247.60449a2.212,2.212,0,0,0-.36133-.96679,1.51642,1.51642,0,0,0-1.3125-.58008,1.7275,1.7275,0,0,0-1.73535,1.25683,5.20671,5.20671,0,0,0-.24707,1.77149,4.78079,4.78079,0,0,0,.24707,1.6914,1.67449,1.67449,0,0,0,1.69141,1.19532,1.49419,1.49419,0,0,0,1.251-.47461,2.36284,2.36284,0,0,0,.44922-1.23047h2.55762a4.18357,4.18357,0,0,1-.82715,2.16211,4.02139,4.02139,0,0,1-3.49219,1.64355,4.08868,4.08868,0,0,1-3.40527-1.37109,5.5351,5.5351,0,0,1-1.09082-3.55567,5.61836,5.61836,0,0,1,1.20508-3.83593,4.19814,4.19814,0,0,1,3.32617-1.3711,5.01035,5.01035,0,0,1,2.95117.8086,3.75842,3.75842,0,0,1,1.35938,2.85644Z"/><path class="cls-3" d="M835.23242,252.57617a5.27793,5.27793,0,0,1-7.36523,0,5.94354,5.94354,0,0,1,0-7.19629,5.22221,5.22221,0,0,1,7.36523,0,5.94354,5.94354,0,0,1,0,7.19629Zm-2.0039-1.38379a4.47256,4.47256,0,0,0,0-4.43652,2.22458,2.22458,0,0,0-3.37891,0,4.4406,4.4406,0,0,0,0,4.43652,2.21913,2.21913,0,0,0,3.37891,0Z"/><path class="cls-3" d="M845.96387,244.71777a3.16972,3.16972,0,0,1,.94043,2.57911v6.45117h-2.56641V247.9209a2.677,2.677,0,0,0-.20019-1.16016,1.41076,1.41076,0,0,0-1.39649-.73828,1.73049,1.73049,0,0,0-1.73633,1.08106,3.73385,3.73385,0,0,0-.24414,1.459v5.18555h-2.50488v-9.5625h2.42578V245.583a4.25,4.25,0,0,1,.91016-1.06348,3.15481,3.15481,0,0,1,1.95215-.58008A3.675,3.675,0,0,1,845.96387,244.71777Z"/><path class="cls-3" d="M848.249,246.04v-1.78418H849.585V241.584h2.47852v2.67188h1.55566V246.04h-1.55566v5.0625a1.14194,1.14194,0,0,0,.14941.73437,1.64681,1.64681,0,0,0,.91406.14454c.07618,0,.15625-.001.24219-.00391.084-.00293.168-.00781.25-.01367v1.87207l-1.18652.04394a3.18413,3.18413,0,0,1-2.42578-.61523,1.83178,1.83178,0,0,1-.42188-1.32715V246.04Z"/><path class="cls-3" d="M859.02148,247.9209a3.96824,3.96824,0,0,0,1.001-.21973.75327.75327,0,0,0,.54-.71191.84045.84045,0,0,0-.41406-.8125,2.6196,2.6196,0,0,0-1.2168-.22461,1.59508,1.59508,0,0,0-1.27344.43945,1.80983,1.80983,0,0,0-.35644.87891h-2.417a3.66294,3.66294,0,0,1,.70605-2.06543,4.11719,4.11719,0,0,1,3.42481-1.26563,6.10929,6.10929,0,0,1,2.80761.624,2.394,2.394,0,0,1,1.22656,2.35547v4.39453q0,.457.01758,1.10742a1.39251,1.39251,0,0,0,.14942.668.89815.89815,0,0,0,.36914.29v.36914h-2.72461a2.78956,2.78956,0,0,1-.1582-.54493q-.044-.25488-.07032-.58007a5.18309,5.18309,0,0,1-1.20215.958,3.63279,3.63279,0,0,1-1.83886.46583,3.17143,3.17143,0,0,1-2.16114-.74219,2.64067,2.64067,0,0,1-.85351-2.10547,2.72712,2.72712,0,0,1,1.37207-2.55762,6.13282,6.13282,0,0,1,2.21387-.61523Zm1.53223,1.16894a2.77672,2.77672,0,0,1-.48535.24219,4.13368,4.13368,0,0,1-.67285.1709l-.57031.10547a3.75475,3.75475,0,0,0-1.15137.34277,1.144,1.144,0,0,0-.5918,1.06348,1.11147,1.11147,0,0,0,.36133.92773,1.37428,1.37428,0,0,0,.87891.28516,2.61641,2.61641,0,0,0,1.51269-.47461,2.01012,2.01012,0,0,0,.71875-1.73145Z"/><path class="cls-3" d="M867.81348,243.02539h-2.54v-2.31152h2.54Zm-2.54,1.14258h2.54v9.58008h-2.54Z"/><path class="cls-3" d="M877.96484,244.71777a3.16969,3.16969,0,0,1,.94043,2.57911v6.45117h-2.5664V247.9209a2.67687,2.67687,0,0,0-.2002-1.16016,1.41075,1.41075,0,0,0-1.39648-.73828,1.73048,1.73048,0,0,0-1.73633,1.08106,3.73367,3.73367,0,0,0-.24414,1.459v5.18555h-2.50488v-9.5625h2.42578V245.583a4.25016,4.25016,0,0,1,.91015-1.06348,3.15486,3.15486,0,0,1,1.95215-.58008A3.675,3.675,0,0,1,877.96484,244.71777Z"/><path class="cls-3" d="M887.47754,244.3623a3.90142,3.90142,0,0,1,1.65527,1.417,4.70318,4.70318,0,0,1,.7627,1.98047,12.2,12.2,0,0,1,.083,1.90136H883.001a2.29923,2.29923,0,0,0,1.00195,2.02149,2.54466,2.54466,0,0,0,1.38086.36035,2.11987,2.11987,0,0,0,1.39062-.43945,2.08455,2.08455,0,0,0,.51563-.65918h2.55762a3.12764,3.12764,0,0,1-.92871,1.73144,4.65606,4.65606,0,0,1-3.6045,1.39746,5.22022,5.22022,0,0,1-3.374-1.17871,4.64286,4.64286,0,0,1-1.46191-3.835,5.184,5.184,0,0,1,1.31933-3.81738,4.61945,4.61945,0,0,1,3.42578-1.3291A5.46706,5.46706,0,0,1,887.47754,244.3623Zm-3.748,2.16407a2.60392,2.60392,0,0,0-.667,1.48242h4.31543a2.09106,2.09106,0,0,0-.667-1.51367,2.19857,2.19857,0,0,0-1.48633-.5166A1.98663,1.98663,0,0,0,883.72949,246.52637Z"/><path class="cls-3" d="M896.56641,243.94434c.03222.00293.10449.00683.21582.01269v2.56641q-.23732-.02637-.42188-.03516t-.29883-.00879a2.07751,2.07751,0,0,0-2.03027.98438,3.82939,3.82939,0,0,0-.29,1.70508v4.5791h-2.52246V244.168h2.39063v1.66992a5.29586,5.29586,0,0,1,1.01074-1.30957,2.75153,2.75153,0,0,1,1.82812-.58887C896.49512,243.93945,896.53418,243.94141,896.56641,243.94434Z"/><path class="cls-3" d="M903.33008,244.32227a3.0412,3.0412,0,0,1,1.09863,1.05859v-4.57031h2.54v12.9375h-2.43457V252.4209a3.53325,3.53325,0,0,1-1.22168,1.23926,3.4298,3.4298,0,0,1-1.70508.38672,3.55728,3.55728,0,0,1-2.82519-1.35743,5.211,5.211,0,0,1-1.14746-3.48535,5.992,5.992,0,0,1,1.12988-3.8584,3.67213,3.67213,0,0,1,3.01855-1.40625A3.09006,3.09006,0,0,1,903.33008,244.32227Zm.61523,6.82421a3.49467,3.49467,0,0,0,.55371-2.04785,3.14076,3.14076,0,0,0-.88769-2.51367,1.91044,1.91044,0,0,0-1.26563-.457,1.75785,1.75785,0,0,0-1.6123.83105,4.47792,4.47792,0,0,0,.00781,4.1836,1.76966,1.76966,0,0,0,1.58692.79492A1.84936,1.84936,0,0,0,903.94531,251.14648Z"/><rect class="cls-2" x="992" y="92" width="136" height="62"/><path class="cls-3" d="M1029.93652,116.81055h9.23731v2.27636H1032.626v2.9795h5.73925v2.25H1032.626v5.43164h-2.68946Z"/><path class="cls-3" d="M1043.28711,129.74805h-2.50488V116.793h2.50488Z"/><path class="cls-3" d="M1049.52441,123.9209a3.96824,3.96824,0,0,0,1.001-.21973.75327.75327,0,0,0,.54-.71191.84045.84045,0,0,0-.41406-.8125,2.6196,2.6196,0,0,0-1.2168-.22461,1.59508,1.59508,0,0,0-1.27344.43945,1.80983,1.80983,0,0,0-.35644.87891h-2.417a3.66294,3.66294,0,0,1,.70605-2.06543,4.11718,4.11718,0,0,1,3.4248-1.26563,6.1093,6.1093,0,0,1,2.80762.624,2.394,2.394,0,0,1,1.22656,2.35547v4.39453q0,.457.01758,1.10742a1.39251,1.39251,0,0,0,.14942.668.89809.89809,0,0,0,.36914.29v.36914h-2.72461a2.79033,2.79033,0,0,1-.15821-.54493q-.04393-.25488-.07031-.58007a5.18309,5.18309,0,0,1-1.20215.958,3.63279,3.63279,0,0,1-1.83886.46583,3.17143,3.17143,0,0,1-2.16114-.74219,2.64067,2.64067,0,0,1-.85351-2.10547,2.72712,2.72712,0,0,1,1.37207-2.55762,6.13282,6.13282,0,0,1,2.21387-.61523Zm1.53223,1.16894a2.77672,2.77672,0,0,1-.48535.24219,4.13368,4.13368,0,0,1-.67285.1709l-.57031.10547a3.75475,3.75475,0,0,0-1.15137.34277,1.144,1.144,0,0,0-.5918,1.06348,1.11147,1.11147,0,0,0,.36133.92773,1.37428,1.37428,0,0,0,.87891.28516,2.61641,2.61641,0,0,0,1.51269-.47461,2.01012,2.01012,0,0,0,.71875-1.73145Z"/><path class="cls-3" d="M1063.4668,120.71777a3.16972,3.16972,0,0,1,.94043,2.57911v6.45117h-2.56641V123.9209a2.677,2.677,0,0,0-.20019-1.16016,1.41076,1.41076,0,0,0-1.39649-.73828,1.73049,1.73049,0,0,0-1.73633,1.08106,3.73385,3.73385,0,0,0-.24414,1.459v5.18555h-2.50488v-9.5625h2.42578V121.583a4.25,4.25,0,0,1,.91016-1.06348,3.15481,3.15481,0,0,1,1.95215-.58008A3.675,3.675,0,0,1,1063.4668,120.71777Z"/><path class="cls-3" d="M1074.46191,120.71777a3.16969,3.16969,0,0,1,.94043,2.57911v6.45117h-2.5664V123.9209a2.67687,2.67687,0,0,0-.2002-1.16016,1.41074,1.41074,0,0,0-1.39648-.73828,1.73048,1.73048,0,0,0-1.73633,1.08106,3.73367,3.73367,0,0,0-.24414,1.459v5.18555h-2.50488v-9.5625h2.42578V121.583a4.25016,4.25016,0,0,1,.91015-1.06348,3.15486,3.15486,0,0,1,1.95215-.58008A3.675,3.675,0,0,1,1074.46191,120.71777Z"/><path class="cls-3" d="M1083.97461,120.3623a3.90142,3.90142,0,0,1,1.65527,1.417,4.70318,4.70318,0,0,1,.7627,1.98047,12.2,12.2,0,0,1,.083,1.90136h-6.97754a2.29923,2.29923,0,0,0,1.002,2.02149,2.54466,2.54466,0,0,0,1.38086.36035,2.11987,2.11987,0,0,0,1.39062-.43945,2.08455,2.08455,0,0,0,.51563-.65918h2.55762a3.12764,3.12764,0,0,1-.92871,1.73144,4.65606,4.65606,0,0,1-3.6045,1.39746,5.22022,5.22022,0,0,1-3.374-1.17871,4.64286,4.64286,0,0,1-1.46191-3.835,5.184,5.184,0,0,1,1.31933-3.81738,4.61945,4.61945,0,0,1,3.42578-1.3291A5.46706,5.46706,0,0,1,1083.97461,120.3623Zm-3.748,2.16407a2.60392,2.60392,0,0,0-.667,1.48242h4.31543a2.09106,2.09106,0,0,0-.667-1.51367,2.19857,2.19857,0,0,0-1.48633-.5166A1.98663,1.98663,0,0,0,1080.22656,122.52637Z"/><path class="cls-3" d="M1090.2998,129.74805h-2.50488V116.793h2.50488Z"/><rect class="cls-2" x="634" y="349" width="62" height="62"/><path class="cls-3" d="M658.07031,381.1416a4.939,4.939,0,0,1-3.249.94922H652.124v4.6582h-2.68945V373.794h5.5625a4.49021,4.49021,0,0,1,3.06738,1.002,3.91153,3.91153,0,0,1,1.14356,3.10254A4.01844,4.01844,0,0,1,658.07031,381.1416Zm-2.0664-4.667a2.17854,2.17854,0,0,0-1.44043-.43066H652.124v3.81445h2.43946a2.06784,2.06784,0,0,0,1.44043-.46582,1.90147,1.90147,0,0,0,.51464-1.47656A1.786,1.786,0,0,0,656.00391,376.47461Z"/><path class="cls-3" d="M669.166,385.57715a5.27795,5.27795,0,0,1-7.36524,0,5.945,5.945,0,0,1,0-7.19727,5.22462,5.22462,0,0,1,7.36524,0,5.945,5.945,0,0,1,0,7.19727Zm-2.00391-1.38477a4.4725,4.4725,0,0,0,0-4.43652,2.22639,2.22639,0,0,0-3.37891,0,4.4406,4.4406,0,0,0,0,4.43652,2.21735,2.21735,0,0,0,3.37891,0Z"/><path class="cls-3" d="M677.252,377.32227a3.04381,3.04381,0,0,1,1.09864,1.05957v-4.57032h2.54V386.749h-2.43458v-1.32714a3.53319,3.53319,0,0,1-1.22167,1.23925,3.42975,3.42975,0,0,1-1.70508.38672,3.55826,3.55826,0,0,1-2.8252-1.3584,5.20836,5.20836,0,0,1-1.14746-3.48437,5.992,5.992,0,0,1,1.12988-3.8584,3.67215,3.67215,0,0,1,3.01856-1.40625A3.08952,3.08952,0,0,1,677.252,377.32227Zm.61524,6.82519a3.49467,3.49467,0,0,0,.55371-2.04785,3.14073,3.14073,0,0,0-.8877-2.51367,1.91042,1.91042,0,0,0-1.26562-.457,1.75715,1.75715,0,0,0-1.61231.83007,4.478,4.478,0,0,0,.00782,4.1836,1.77038,1.77038,0,0,0,1.58691.7959A1.8494,1.8494,0,0,0,677.86719,384.14746Z"/><rect class="cls-2" x="831" y="349" width="62" height="62"/><path class="cls-3" d="M855.07031,381.1416a4.939,4.939,0,0,1-3.249.94922H849.124v4.6582h-2.68945V373.794h5.5625a4.49021,4.49021,0,0,1,3.06738,1.002,3.91153,3.91153,0,0,1,1.14356,3.10254A4.01844,4.01844,0,0,1,855.07031,381.1416Zm-2.0664-4.667a2.17854,2.17854,0,0,0-1.44043-.43066H849.124v3.81445h2.43946a2.06784,2.06784,0,0,0,1.44043-.46582,1.90147,1.90147,0,0,0,.51464-1.47656A1.786,1.786,0,0,0,853.00391,376.47461Z"/><path class="cls-3" d="M866.166,385.57715a5.27795,5.27795,0,0,1-7.36524,0,5.945,5.945,0,0,1,0-7.19727,5.22462,5.22462,0,0,1,7.36524,0,5.945,5.945,0,0,1,0,7.19727Zm-2.00391-1.38477a4.4725,4.4725,0,0,0,0-4.43652,2.22639,2.22639,0,0,0-3.37891,0,4.4406,4.4406,0,0,0,0,4.43652,2.21735,2.21735,0,0,0,3.37891,0Z"/><path class="cls-3" d="M874.252,377.32227a3.04381,3.04381,0,0,1,1.09864,1.05957v-4.57032h2.54V386.749h-2.43458v-1.32714a3.53319,3.53319,0,0,1-1.22167,1.23925,3.42975,3.42975,0,0,1-1.70508.38672,3.55826,3.55826,0,0,1-2.8252-1.3584,5.20836,5.20836,0,0,1-1.14746-3.48437,5.992,5.992,0,0,1,1.12988-3.8584,3.67215,3.67215,0,0,1,3.01856-1.40625A3.08952,3.08952,0,0,1,874.252,377.32227Zm.61524,6.82519a3.49467,3.49467,0,0,0,.55371-2.04785,3.14073,3.14073,0,0,0-.8877-2.51367,1.91042,1.91042,0,0,0-1.26562-.457,1.75715,1.75715,0,0,0-1.61231.83007,4.478,4.478,0,0,0,.00782,4.1836,1.77038,1.77038,0,0,0,1.58691.7959A1.8494,1.8494,0,0,0,874.86719,384.14746Z"/><rect class="cls-2" x="1029" y="349" width="62" height="62"/><path class="cls-3" d="M1053.07031,381.1416a4.939,4.939,0,0,1-3.249.94922H1047.124v4.6582h-2.68945V373.794h5.5625a4.49021,4.49021,0,0,1,3.06738,1.002,3.91153,3.91153,0,0,1,1.14356,3.10254A4.01844,4.01844,0,0,1,1053.07031,381.1416Zm-2.0664-4.667a2.17854,2.17854,0,0,0-1.44043-.43066H1047.124v3.81445h2.43946a2.06784,2.06784,0,0,0,1.44043-.46582,1.90147,1.90147,0,0,0,.51464-1.47656A1.786,1.786,0,0,0,1051.00391,376.47461Z"/><path class="cls-3" d="M1064.166,385.57715a5.27795,5.27795,0,0,1-7.36524,0,5.945,5.945,0,0,1,0-7.19727,5.22462,5.22462,0,0,1,7.36524,0,5.945,5.945,0,0,1,0,7.19727Zm-2.00391-1.38477a4.4725,4.4725,0,0,0,0-4.43652,2.22639,2.22639,0,0,0-3.37891,0,4.4406,4.4406,0,0,0,0,4.43652,2.21735,2.21735,0,0,0,3.37891,0Z"/><path class="cls-3" d="M1072.252,377.32227a3.04381,3.04381,0,0,1,1.09864,1.05957v-4.57032h2.54V386.749h-2.43458v-1.32714a3.53319,3.53319,0,0,1-1.22167,1.23925,3.42975,3.42975,0,0,1-1.70508.38672,3.55826,3.55826,0,0,1-2.8252-1.3584,5.20836,5.20836,0,0,1-1.14746-3.48437,5.992,5.992,0,0,1,1.12988-3.8584,3.67215,3.67215,0,0,1,3.01856-1.40625A3.08952,3.08952,0,0,1,1072.252,377.32227Zm.61524,6.82519a3.49467,3.49467,0,0,0,.55371-2.04785,3.14073,3.14073,0,0,0-.8877-2.51367,1.91042,1.91042,0,0,0-1.26562-.457,1.75715,1.75715,0,0,0-1.61231.83007,4.478,4.478,0,0,0,.00782,4.1836,1.77038,1.77038,0,0,0,1.58691.7959A1.8494,1.8494,0,0,0,1072.86719,384.14746Z"/><path class="cls-2" d="M771.53226,125.0542l-.83252.03662c.52.85693-.68359,3.91357-3.17138,3.49365.3247,1.66748-1.09623,2.69532-2.70752,2.28028a8.76049,8.76049,0,0,0-4.63139-.04395c-3.0151.5542-6.47945,1.48438-10.04635-.5957a.56288.56288,0,0,0-.76538.20508c-.17212.39062-.04272,1.54785-1.01684,1.56982h-3.63282c-1.29638,0-2.334-1.897-2.31445-7.91748.01953-6.26953.08911-8.72559,2.68307-8.75,2.54642-.01953,3.252,0,3.252,0,.81055.02441.93994.56152,1.06689.91553a.45513.45513,0,0,0,.58716.19775,24.98929,24.98929,0,0,1,6.322-1.83105c2.57813-.271,3.58643-1.05225,5.32227-.78614,2.05566.31739,8.70605.09766,10.6958.06836,1.9458-.02441,5.06832.60547,9.21383.51026,3.95752-.09034,3.977,4.48974.41752,4.28222-2.815-.16357-2.909.17823-3.87951.0586a25.95626,25.95626,0,0,0-4.90711.08056,22.91869,22.91869,0,0,0-3.04444.04639,12.63313,12.63313,0,0,1,2.40967,1.13525C774.5889,121.02832,773.40726,124.93945,771.53226,125.0542Z"/><path class="cls-3" d="M747.59672,123.438a45.06721,45.06721,0,0,0,.55664,7.22168c.13183.37109-.14161.603-.6958.55176-.38575-.03174-2.33643-.01954-2.33643-.01954-.85693,0-1.89945-.88134-1.89945-7.54882.04642-6.897.32352-7.77832,2.36088-7.77832l2.52441.07324a.46786.46786,0,0,1,.34668.27344C748.65262,116.60205,747.7725,117.12207,747.59672,123.438Z"/><path class="cls-3" d="M753.48539,124.10938a.3868.3868,0,0,0-.10014.39062c.232.43945.73979.105,1.13285.0708.32471-.02685,2.085-.32471,2.73194.09522a4.86466,4.86466,0,0,1,2.36084,2.98095,2.60107,2.60107,0,0,0,1.46,1.57715c.59326.19043.49316.7959-.01221.84473a23.06139,23.06139,0,0,1-5.98389.68115c-3.35693-.18311-6.5039-.835-6.71386-5.30029a34.095,34.095,0,0,1,.39184-7.12891c.36743-1.25976,1.39038-1.25,2.29248-1.71387,3.74146-1.60888,6.24146-1.50879,8.31177-1.96777a2.4753,2.4753,0,0,1,2.47559.23193c2.21679,1.55518,4.88525,2.085,5.53466,2.54883.448.28809.57618.43457.647.59815.11352.26855.57861.30273.97168.625a2.69349,2.69349,0,0,0,.64937.3955c-.37105.4834-.70553-.05859-1.22066.99366a1.3159,1.3159,0,0,0,.08545.83252c.24414.42968,1.15722.498,1.51611.56152.28564.05371.62744.10742.94971.16846.85689.16357,1.11572-.71534,1.145-.40284.15869,1.57227-1.95557,1.25-2.64893,1.13282a12.70032,12.70032,0,0,1-1.95923-.57862c-.29907-.23193-1.89087-.27832-1.87256-1.40136-.02319-.18067.011-.58594-.48706-.40284-.376.13672-2.17285.12207-2.4414-.3955a.99017.99017,0,0,0-.498-.50782c-.25391-.11474-.40527.03174-.37109.32227.04516.37109.01709.87891-.50782.99609a1.10361,1.10361,0,0,1-1.01806-.06836,3.93068,3.93068,0,0,0-1.29643-.57861c-.2441.07813-.43453.26611.1392.52979a1.21454,1.21454,0,0,1,.25391,2.03613c-1.29151,1.40869-.87647,1.51611-5.45655,1.66992A.59724.59724,0,0,0,753.48539,124.10938Z"/><path class="cls-3" d="M760.98783,124.18994c-.60059-.7666-1.06445-1.02051-.49561-1.77.06836-.144.27588-.144.84473-.01221.30029.06836,1.30615,1.28174.42725,2.09229C761.55668,124.61475,761.32474,124.69775,760.98783,124.18994Z"/><path class="cls-3" d="M760.02836,126.58252c-.36621.11719-.94971-1.57959-.9253-1.68945.03907-.16114.06344-.33692.81055-.39307a1.3154,1.3154,0,0,1,.87891,1.36475C760.74369,126.353,760.09916,126.563,760.02836,126.58252Z"/><path class="cls-3" d="M763.04838,122.3125c-.32227-.35645-1.04981-1.02051-.84473-1.37451.24658-.42481.52978-.63965,1.28418-.3711a1.12936,1.12936,0,0,1,.42969,1.98731C763.605,122.68115,763.48783,122.78857,763.04838,122.3125Z"/><path class="cls-3" d="M766.86674,128.56006c.5249,2.18994-1.88477,2.02637-2.85649,1.45019-1.56-.92773-2.91744-1.15722-3.44967-1.78222-.30033-.35157-.74218-1.25-.30033-1.29395a1.87915,1.87915,0,0,0,.94975-.55908c.08545-.08057-.03662-.68115.09033-.66895.09277.022-.06836.647,1.43555,1.38672a19.92965,19.92965,0,0,0,2.54638.97168,11.4593,11.4593,0,0,0,1.43555.35889C766.84476,128.44775,766.85941,128.51367,766.86674,128.56006Z"/><path class="cls-3" d="M769.78666,125.10059a18.39257,18.39257,0,0,0-2.72221.02441c-2.03609.20752-2.93941-.57373-3.37887-1.1499-.41748-.39063-.53222-.71533-.85693-.979-.26123-.21-.54443-.66162-.37109.03418.08544.3418.36254.5542.13916,1.12549a1.89206,1.89206,0,0,1-.87891.92285c-.0708.02442-.15259.03418-.09277.06836a2.96032,2.96032,0,0,0,2.08252,1.66992c2.26562.58594,3.269,1.145,3.74511,1.23047a1.12991,1.12991,0,0,0,.31491,0,1.77452,1.77452,0,0,0,1.17187-.32959,2.58353,2.58353,0,0,0,1.07914-2.37548C769.96,125.20312,769.8892,125.10059,769.78666,125.10059Z"/><path class="cls-3" d="M772.85306,121.28223c.16114,0,.43457,2.45361-1.27441,3.07861a5.50986,5.50986,0,0,1-2.12891.11719c-1.43554-.0708-2.58789.03418-3.17138.022a2.63375,2.63375,0,0,1-1.98975-.6958c-.23193-.249-.75439-.64453-.40527-.78613a1.28636,1.28636,0,0,0,.8667-.76172c.39306-.74219-.12452-1.24024.33691-1.04492a3.1927,3.1927,0,0,1,.84473.48828c1.62353,1.15234,6.78222,2.38281,6.665-.21C772.62113,121.3042,772.78226,121.16992,772.85306,121.28223Z"/><path class="cls-3" d="M770.23588,119.5a1.44743,1.44743,0,0,1,.71777.25635c.32471.13672,1.48193.34668.94971,1.01562-.53223.67383-2.10816.09278-2.66114-.08789a.46959.46959,0,0,1-.3247-.46631C768.91752,120.01025,769.05668,119.5,770.23588,119.5Z"/><path class="cls-3" d="M778.89314,115.01025c-1.272.022-4.2115-.64941-5.763-.34423-1.89819-.35157-5.18432.022-6.27319-.07325a31.92843,31.92843,0,0,0-4.4458,0,16.47481,16.47481,0,0,0,4.23828,1.897,3.36088,3.36088,0,0,1,2.10571,1.438c1.63208.26612,4.01.37842,4.11988.14893.05371-.10986.083-.23682.3833-.17334.26611.05859.12691.127.625.14893,2.56832.0708,3.93181.02441,3.93181.02441.57025-.03418.37975-.24658.58223-.30029.17826-.04639.04528.1416.647.20752a23.38274,23.38274,0,0,0,3.41549.11718c2.01428.04395,2.48051-3.00293-.92773-3.1372C779.21789,114.87109,779.24215,115.07861,778.89314,115.01025Z"/><path class="cls-2" d="M952.96775,125.0542l.83244.03662c-.51994.85693.68367,3.91357,3.17146,3.49365-.3247,1.66748,1.09619,2.69532,2.70752,2.28028a8.76036,8.76036,0,0,1,4.63135-.04395c3.01514.5542,6.47949,1.48438,10.04639-.5957a.56288.56288,0,0,1,.76538.20508c.17212.39062.04272,1.54785,1.01684,1.56982H979.772c1.29638,0,2.334-1.897,2.31445-7.91748-.01961-6.26953-.08911-8.72559-2.68311-8.75-2.54638-.01953-3.25195,0-3.25195,0-.81055.02441-.93994.56152-1.06689.91553a.45513.45513,0,0,1-.58716.19775,24.98913,24.98913,0,0,0-6.3221-1.83105c-2.57813-.271-3.58643-1.05225-5.32219-.78614-2.05566.31739-8.70605.09766-10.6958.06836-1.9458-.02441-5.06836.60547-9.21387.51026-3.95752-.09034-3.977,4.48974-.41748,4.28222,2.81494-.16357,2.909.17823,3.87947.0586a25.95662,25.95662,0,0,1,4.90715.08056,22.91864,22.91864,0,0,1,3.04444.04639,12.63313,12.63313,0,0,0-2.40967,1.13525C949.91111,121.02832,951.09275,124.93945,952.96775,125.0542Z"/><path class="cls-3" d="M976.90329,123.438a45.06842,45.06842,0,0,1-.55664,7.22168c-.13183.37109.1416.603.6958.55176.38575-.03174,2.33643-.01954,2.33643-.01954.85693,0,1.89941-.88134,1.89941-7.54882-.04638-6.897-.32348-7.77832-2.36084-7.77832l-2.52441.07324a.46786.46786,0,0,0-.34668.27344C975.84739,116.60205,976.72751,117.12207,976.90329,123.438Z"/><path class="cls-3" d="M971.01462,124.10938a.38688.38688,0,0,1,.1001.39062c-.23193.43945-.73975.105-1.13281.0708-.32471-.02685-2.085-.32471-2.73194.09522a4.86466,4.86466,0,0,0-2.36084,2.98095,2.60107,2.60107,0,0,1-1.46,1.57715c-.59326.19043-.49316.7959.01221.84473a23.06112,23.06112,0,0,0,5.98381.68115c3.357-.18311,6.504-.835,6.71394-5.30029a34.095,34.095,0,0,0-.39184-7.12891c-.36743-1.25976-1.39038-1.25-2.29248-1.71387-3.74146-1.60888-6.24146-1.50879-8.31185-1.96777a2.47515,2.47515,0,0,0-2.47551.23193c-2.21679,1.55518-4.88525,2.085-5.53466,2.54883-.448.28809-.57618.43457-.647.59815-.11352.26855-.57861.30273-.97168.625a2.69448,2.69448,0,0,1-.64941.3955c.37109.4834.70557-.05859,1.2207.99366a1.3159,1.3159,0,0,1-.08545.83252c-.24414.42968-1.15722.498-1.51611.56152-.28572.05371-.62752.10742-.94971.16846-.85693.16357-1.11572-.71534-1.145-.40284-.15876,1.57227,1.95557,1.25,2.64893,1.13282a12.70292,12.70292,0,0,0,1.95923-.57862c.29907-.23193,1.89087-.27832,1.87256-1.40136.02311-.18067-.011-.58594.48706-.40284.376.13672,2.17285.12207,2.4414-.3955a.99017.99017,0,0,1,.49805-.50782c.25383-.11474.40527.03174.37109.32227-.04516.37109-.01709.87891.50774.99609a1.10375,1.10375,0,0,0,1.01814-.06836,3.93077,3.93077,0,0,1,1.29639-.57861c.24414.07813.43449.26611-.13916.52979a1.21454,1.21454,0,0,0-.25391,2.03613c1.29151,1.40869.87639,1.51611,5.45655,1.66992A.59735.59735,0,0,1,971.01462,124.10938Z"/><path class="cls-3" d="M963.51218,124.18994c.60051-.7666,1.06445-1.02051.49561-1.77-.06836-.144-.27588-.144-.84473-.01221-.30037.06836-1.30615,1.28174-.42725,2.09229C962.94333,124.61475,963.17519,124.69775,963.51218,124.18994Z"/><path class="cls-3" d="M964.47165,126.58252c.36621.11719.94971-1.57959.9253-1.68945-.03907-.16114-.06348-.33692-.81055-.39307a1.31544,1.31544,0,0,0-.879,1.36475C963.75632,126.353,964.40085,126.563,964.47165,126.58252Z"/><path class="cls-3" d="M961.45163,122.3125c.32227-.35645,1.04981-1.02051.84473-1.37451-.24658-.42481-.52979-.63965-1.28418-.3711a1.12939,1.12939,0,0,0-.42976,1.98731C960.89492,122.68115,961.01218,122.78857,961.45163,122.3125Z"/><path class="cls-3" d="M957.63327,128.56006c-.5249,2.18994,1.88469,2.02637,2.85645,1.45019,1.56006-.92773,2.91748-1.15722,3.44971-1.78222.30029-.35157.74218-1.25.30029-1.29395a1.879,1.879,0,0,1-.94971-.55908c-.08545-.08057.03662-.68115-.09033-.66895-.09277.022.06828.647-1.43555,1.38672a19.93587,19.93587,0,0,1-2.54638.97168,11.463,11.463,0,0,1-1.43555.35889C957.65525,128.44775,957.6406,128.51367,957.63327,128.56006Z"/><path class="cls-3" d="M954.71335,125.10059a18.39177,18.39177,0,0,1,2.72217.02441c2.03613.20752,2.93945-.57373,3.37891-1.1499.41748-.39063.53222-.71533.85693-.979.26115-.21.54436-.66162.37109.03418-.08545.3418-.36255.5542-.13923,1.12549a1.89261,1.89261,0,0,0,.879.92285c.0708.02442.15259.03418.09277.06836a2.96032,2.96032,0,0,1-2.08252,1.66992c-2.26562.58594-3.269,1.145-3.74511,1.23047a1.1302,1.1302,0,0,1-.31495,0,1.7747,1.7747,0,0,1-1.17187-.32959,2.58365,2.58365,0,0,1-1.07918-2.37548C954.54,125.20312,954.61081,125.10059,954.71335,125.10059Z"/><path class="cls-3" d="M951.647,121.28223c-.16114,0-.43457,2.45361,1.27441,3.07861a5.50953,5.50953,0,0,0,2.12883.11719c1.43562-.0708,2.588.03418,3.17146.022a2.63387,2.63387,0,0,0,1.98975-.6958c.23193-.249.75432-.64453.40527-.78613a1.28607,1.28607,0,0,1-.8667-.76172c-.39306-.74219.12451-1.24024-.33691-1.04492a3.1927,3.1927,0,0,0-.84473.48828c-1.62353,1.15234-6.78222,2.38281-6.66511-.21C951.87888,121.3042,951.71775,121.16992,951.647,121.28223Z"/><path class="cls-3" d="M954.26413,119.5a1.44743,1.44743,0,0,0-.71777.25635c-.32471.13672-1.48193.34668-.94971,1.01562.53223.67383,2.10816.09278,2.66114-.08789a.46957.46957,0,0,0,.32463-.46631C955.58242,120.01025,955.44333,119.5,954.26413,119.5Z"/><path class="cls-3" d="M945.60683,115.01025c1.272.022,4.2115-.64941,5.763-.34423,1.89811-.35157,5.18432.022,6.27311-.07325a31.92851,31.92851,0,0,1,4.4458,0,16.47219,16.47219,0,0,1-4.2382,1.897,3.36068,3.36068,0,0,0-2.10571,1.438c-1.63216.26612-4.01.37842-4.11988.14893-.05371-.10986-.08308-.23682-.3833-.17334-.26611.05859-.12695.127-.625.14893-2.56836.0708-3.93181.02441-3.93181.02441-.57029-.03418-.37979-.24658-.58227-.30029-.1783-.04639-.04524.1416-.647.20752a23.381,23.381,0,0,1-3.41545.11718c-2.01424.04395-2.48055-3.00293.92773-3.1372C945.28205,114.87109,945.25786,115.07861,945.60683,115.01025Z"/><path class="cls-2" d="M859.9458,193.03225l-.03418-.83244c-.85693.51994-3.91357-.68367-3.49609-3.17146-1.66748.3247-2.69043-1.09619-2.28028-2.70752a8.72961,8.72961,0,0,0,.04639-4.63135c-.5542-3.01514-1.48682-6.47949.5957-10.04639a.55741.55741,0,0,0-.20752-.76416c-.39062-.17334-1.54541-.04394-1.56982-1.01806v-3.63282c0-1.29638,1.89941-2.334,7.91748-2.31445,6.272.01961,8.728.09041,8.75,2.68311.022,2.54638,0,3.25195,0,3.25195-.022.81055-.56152.93994-.91064,1.06689a.44928.44928,0,0,0-.19776.58838,25.00546,25.00546,0,0,1,1.82617,6.32088c.27344,2.57813,1.05469,3.58643.78858,5.32219-.31494,2.05566-.09766,8.70605-.0708,10.6958.02685,1.9458-.603,5.06836-.50782,9.21387.09034,3.95752-4.49218,3.977-4.28222.41748.166-2.81494-.18067-2.90772-.05615-3.87947a25.52547,25.52547,0,0,0-.08545-4.90715,22.31129,22.31129,0,0,0-.04395-3.04444,12.48247,12.48247,0,0,1-1.13525,2.40967C863.97412,196.08889,860.063,194.90725,859.9458,193.03225Z"/><path class="cls-3" d="M861.56689,169.09671a45.01283,45.01283,0,0,0-7.22168.55664c-.37353.13183-.60546-.1416-.55419-.6958.03173-.38575.022-2.33643.022-2.33643,0-.85693.8789-1.89941,7.54394-1.89941,6.89942.04638,7.77832.32226,7.77832,2.36084l-.06836,2.52441a.48832.48832,0,0,1-.27587.34668C868.40283,170.15139,867.88281,169.27249,861.56689,169.09671Z"/><path class="cls-3" d="M860.89307,174.98538a.38206.38206,0,0,0-.38819-.1001c-.44189.23193-.10742.73975-.07324,1.13281.0293.32471.32471,2.085-.09277,2.73194a4.889,4.889,0,0,1-2.98584,2.36084,2.59817,2.59817,0,0,0-1.57471,1.46c-.19043.59326-.79346.49316-.84473-.01221a23.00782,23.00782,0,0,1-.68359-5.98381c.18555-3.357.835-6.504,5.30273-6.71394a33.98671,33.98671,0,0,1,7.12891.39306c1.25732.36621,1.25,1.38916,1.71387,2.29,1.61133,3.74268,1.50879,6.24268,1.96777,8.31307a2.47513,2.47513,0,0,1-.23193,2.47551c-1.55762,2.21679-2.08252,4.88525-2.54639,5.53466-.28808.4493-.437.57618-.60058.647-.26856.11482-.30274.57861-.62745.97168a2.7633,2.7633,0,0,0-.39306.64941c-.48584-.37109.061-.70557-.99121-1.2207a1.3328,1.3328,0,0,0-.83741.08545c-.42724.24414-.4956,1.15722-.56152,1.51611-.04883.28572-.105.62752-.16846.94971-.16113.85693.71778,1.11572.40772,1.145-1.57471.15876-1.25-1.95557-1.13526-2.64893a12.38341,12.38341,0,0,1,.57862-1.95793c.23193-.30037.27832-1.89217,1.40136-1.875.18311-.022.58594.01213.40528-.48592-.13916-.376-.12207-2.17285.39306-2.4414a.97265.97265,0,0,0,.50782-.49805c.11718-.25383-.03418-.40527-.32471-.37109-.36621.04646-.87646.01709-.99365-.50774a1.09627,1.09627,0,0,1,.06836-1.01814,3.94062,3.94062,0,0,0,.58105-1.29639c-.07812-.24414-.26611-.43449-.53467.13916a1.21392,1.21392,0,0,1-2.03613.25391c-1.40625-1.29151-1.51123-.87639-1.665-5.45655A.61687.61687,0,0,0,860.89307,174.98538Z"/><path class="cls-3" d="M860.81494,182.48782c.76172-.60051,1.01807-1.06445,1.77-.49561.13916.06836.144.27588.01221.84473-.06836.30037-1.28418,1.30615-2.09229.42725C860.38525,183.05667,860.30469,182.82481,860.81494,182.48782Z"/><path class="cls-3" d="M858.41748,181.52835c-.11475-.36621,1.582-.94971,1.68945-.9253.166.03907.33692.06348.39795.81055a1.31784,1.31784,0,0,1-1.36963.879C858.64941,182.24368,858.43945,181.59915,858.41748,181.52835Z"/><path class="cls-3" d="M862.68994,184.54837c.35889-.32227,1.023-1.04981,1.37695-.84473.41993.24658.63721.52979.36866,1.28418a1.13133,1.13133,0,0,1-1.98975.42976C862.31885,185.10508,862.21387,184.98782,862.68994,184.54837Z"/><path class="cls-3" d="M856.43994,188.36673c-2.1875.5249-2.02637-1.88469-1.44775-2.85645.92529-1.56006,1.15722-2.91748,1.78467-3.44971.34912-.30029,1.24755-.74218,1.29394-.30029a1.85656,1.85656,0,0,0,.5542.94971c.083.08545.686-.03662.67383.09033-.022.09277-.64942-.06828-1.38916,1.43555a19.97674,19.97674,0,0,0-.97412,2.54638,12.55082,12.55082,0,0,0-.35645,1.43555C856.55713,188.34475,856.48877,188.3594,856.43994,188.36673Z"/><path class="cls-3" d="M859.90186,191.28665a18.78428,18.78428,0,0,0-.02442-2.72217c-.21-2.03613.57129-2.93945,1.1499-3.37891.38819-.41748.71778-.53222.98145-.85693.20752-.26115.65674-.54436-.03662-.37109-.33936.08545-.55664.36377-1.12305.13923a1.91822,1.91822,0,0,1-.92773-.879c-.022-.0708-.03418-.15129-.06836-.09277a2.96568,2.96568,0,0,0-1.66748,2.08252c-.58594,2.26562-1.14258,3.269-1.23047,3.74511a1.354,1.354,0,0,0,0,.31495,1.78906,1.78906,0,0,0,.32959,1.17187,2.58916,2.58916,0,0,0,2.37549,1.07918C859.79932,191.46,859.90186,191.38919,859.90186,191.28665Z"/><path class="cls-3" d="M863.72021,194.35305c0,.16114-2.45117.43457-3.08105-1.27441a5.50842,5.50842,0,0,1-.11475-2.12883c.0708-1.43562-.03173-2.588-.01953-3.17146a2.63947,2.63947,0,0,1,.69092-1.98975c.249-.23193.647-.75432.78613-.40527a1.30348,1.30348,0,0,0,.76416.8667c.74219.39306,1.2378-.12451,1.04493.33691a3.33388,3.33388,0,0,1-.48829.84473c-1.1499,1.62353-2.38525,6.78222.21,6.66511C863.6958,194.12112,863.835,194.28225,863.72021,194.35305Z"/><path class="cls-3" d="M865.50488,191.73587a1.472,1.472,0,0,1-.25879.71777c-.13916.32471-.34668,1.48193-1.01806.94971-.66895-.53223-.09278-2.10938.09277-2.66114a.46287.46287,0,0,1,.46387-.32463C864.99219,190.41758,865.50488,190.55667,865.50488,191.73587Z"/><path class="cls-3" d="M869.99219,200.39317c-.01953-1.272.64941-4.2115.34668-5.76416.34668-1.897-.022-5.18318.0708-6.272a31.55249,31.55249,0,0,0,0-4.4458,16.472,16.472,0,0,0-1.897,4.2382,3.375,3.375,0,0,1-1.438,2.10457c-.26367,1.6333-.38086,4.01115-.14893,4.121.10986.05371.23926.08308.17334.3833-.05615.26611-.12695.12695-.15137.625-.06836,2.56836-.022,3.9331-.022,3.9331.03418.569.24658.3785.30029.581.04883.1783-.13916.044-.21.647a24.05879,24.05879,0,0,0-.11474,3.41545c-.04639,2.01424,3.00049,2.48055,3.13965-.92773C870.13135,200.718,869.92383,200.74214,869.99219,200.39317Z"/><line class="cls-4" x1="862" y1="278" x2="862" y2="335.74646"/><polygon class="cls-2" points="849.73 325.806 851.928 323.76 861.997 334.595 872.069 323.76 874.267 325.806 861.997 339 849.73 325.806"/><polyline class="cls-4" points="812 278 812 308 665 309 665 335.746"/><polygon class="cls-2" points="652.73 325.806 654.928 323.76 664.997 334.595 675.069 323.76 677.267 325.806 664.997 339 652.73 325.806"/><polyline class="cls-4" points="912 278 912 308 1060 309 1060 336.746"/><polygon class="cls-2" points="1047.73 326.806 1049.928 324.76 1059.997 335.595 1070.069 324.76 1072.267 326.806 1059.997 340 1047.73 326.806"/><rect class="cls-1" y="33" width="531" height="275"/><rect class="cls-2" x="268" y="92" width="136" height="62"/><path class="cls-3" d="M290.50781,116.793v2.29394h-3.876v10.66114h-2.72461V119.08691h-3.89356V116.793Z"/><path class="cls-3" d="M293.05664,120.168v5.77441a3.04207,3.04207,0,0,0,.19238,1.23047,1.33089,1.33089,0,0,0,1.33789.72949,1.74739,1.74739,0,0,0,1.749-1.03711,3.77368,3.77368,0,0,0,.24511-1.48535V120.168h2.54v9.58008h-2.43457v-1.35352c-.02343.0293-.082.11719-.1748.26367a1.78653,1.78653,0,0,1-.333.38672,3.48,3.48,0,0,1-1.13574.7207,3.85782,3.85782,0,0,1-1.28418.19336,2.85981,2.85981,0,0,1-2.85645-1.52929,5.85383,5.85383,0,0,1-.41211-2.48731V120.168Z"/><path class="cls-3" d="M309.28125,120.71777a3.16972,3.16972,0,0,1,.94043,2.57911v6.45117h-2.56641V123.9209a2.67688,2.67688,0,0,0-.20019-1.16016,1.41076,1.41076,0,0,0-1.39649-.73828,1.73046,1.73046,0,0,0-1.73632,1.08106,3.73367,3.73367,0,0,0-.24414,1.459v5.18555h-2.50489v-9.5625H303.999V121.583a4.25017,4.25017,0,0,1,.91016-1.06348,3.15481,3.15481,0,0,1,1.95215-.58008A3.675,3.675,0,0,1,309.28125,120.71777Z"/><path class="cls-3" d="M320.27637,120.71777a3.16972,3.16972,0,0,1,.94043,2.57911v6.45117h-2.56641V123.9209a2.677,2.677,0,0,0-.20019-1.16016,1.41076,1.41076,0,0,0-1.39649-.73828,1.73049,1.73049,0,0,0-1.73633,1.08106,3.73385,3.73385,0,0,0-.24414,1.459v5.18555h-2.50488v-9.5625h2.42578V121.583a4.25,4.25,0,0,1,.91016-1.06348,3.15481,3.15481,0,0,1,1.95215-.58008A3.675,3.675,0,0,1,320.27637,120.71777Z"/><path class="cls-3" d="M329.78906,120.3623a3.9015,3.9015,0,0,1,1.65528,1.417,4.7033,4.7033,0,0,1,.76269,1.98047,12.2,12.2,0,0,1,.083,1.90136H325.3125a2.29925,2.29925,0,0,0,1.002,2.02149,2.54471,2.54471,0,0,0,1.38086.36035,2.1199,2.1199,0,0,0,1.39063-.43945,2.08453,2.08453,0,0,0,.51562-.65918h2.55762a3.12751,3.12751,0,0,1-.92871,1.73144,4.656,4.656,0,0,1-3.60449,1.39746,5.22023,5.22023,0,0,1-3.374-1.17871,4.64286,4.64286,0,0,1-1.46191-3.835,5.18392,5.18392,0,0,1,1.31934-3.81738,4.61945,4.61945,0,0,1,3.42578-1.3291A5.467,5.467,0,0,1,329.78906,120.3623Zm-3.748,2.16407a2.60386,2.60386,0,0,0-.667,1.48242h4.31543a2.091,2.091,0,0,0-.667-1.51367,2.19855,2.19855,0,0,0-1.48633-.5166A1.9866,1.9866,0,0,0,326.041,122.52637Z"/><path class="cls-3" d="M336.11426,129.74805h-2.50488V116.793h2.50488Z"/><path class="cls-3" d="M352.458,124.14062a4.9389,4.9389,0,0,1-3.249.94922h-2.69726v4.65821h-2.68945V116.793h5.5625a4.49025,4.49025,0,0,1,3.06738,1.002,3.91156,3.91156,0,0,1,1.14355,3.10254A4.01843,4.01843,0,0,1,352.458,124.14062Zm-2.06641-4.667a2.17851,2.17851,0,0,0-1.44043-.43066h-2.43945v3.81445h2.43945a2.06776,2.06776,0,0,0,1.44043-.46582,1.90142,1.90142,0,0,0,.51465-1.47656A1.786,1.786,0,0,0,350.3916,119.47363Z"/><path class="cls-3" d="M360.88574,119.94434c.03223.00293.10449.00683.21582.01269v2.56641q-.2373-.02637-.42187-.03516t-.29883-.00879a2.07751,2.07751,0,0,0-2.03027.98438,3.82939,3.82939,0,0,0-.29,1.70508v4.5791h-2.52246V120.168h2.39062v1.66992a5.2961,5.2961,0,0,1,1.01074-1.30957,2.75156,2.75156,0,0,1,1.82813-.58887C360.81445,119.93945,360.85352,119.94141,360.88574,119.94434Z"/><path class="cls-3" d="M370.55859,128.57617a5.27793,5.27793,0,0,1-7.36523,0,5.94354,5.94354,0,0,1,0-7.19629,5.22221,5.22221,0,0,1,7.36523,0,5.94354,5.94354,0,0,1,0,7.19629Zm-2.0039-1.38379a4.47256,4.47256,0,0,0,0-4.43652,2.22458,2.22458,0,0,0-3.37891,0,4.4406,4.4406,0,0,0,0,4.43652,2.21913,2.21913,0,0,0,3.37891,0Z"/><path class="cls-3" d="M372.61035,129.74805l3.26953-4.85157-3.1289-4.71093h3.06836l1.59961,2.77539,1.56445-2.77539h2.97851l-3.14648,4.667,3.26953,4.89551h-3.11914l-1.64941-2.87989-1.665,2.87989Z"/><path class="cls-3" d="M383.95313,131.585l.3164.01758a3.94721,3.94721,0,0,0,.70313-.02637,1.26224,1.26224,0,0,0,.5625-.20215,1.35144,1.35144,0,0,0,.4082-.624,1.50854,1.50854,0,0,0,.16309-.58008L382.58594,120.168h2.78711l2.09179,7.06641,1.97657-7.06641h2.66406l-3.28516,9.42187a13.27774,13.27774,0,0,1-1.50586,3.37989,2.86229,2.86229,0,0,1-2.21777.65429c-.22266,0-.40137-.001-.53613-.0039q-.20362-.00439-.60742-.03125Z"/><rect class="cls-2" x="167" y="216" width="136" height="62"/><rect class="cls-2" x="31" y="92" width="136" height="62"/><path class="cls-3" d="M194.87793,249.749a2.63129,2.63129,0,0,0,.49316,1.32715,2.87492,2.87492,0,0,0,2.30664.79981,4.96647,4.96647,0,0,0,1.58887-.21094,1.50781,1.50781,0,0,0,1.15723-1.50293,1.10772,1.10772,0,0,0-.56738-.99316,6.14739,6.14739,0,0,0-1.79883-.60645l-1.40235-.30762a8.74081,8.74081,0,0,1-2.84082-.99316,3.159,3.159,0,0,1-1.30957-2.80371,3.72238,3.72238,0,0,1,1.28125-2.8916,5.46152,5.46152,0,0,1,3.76367-1.15137,5.76932,5.76932,0,0,1,3.53614,1.08594,3.85715,3.85715,0,0,1,1.53515,3.15039h-2.60156a1.8544,1.8544,0,0,0-1.04492-1.66114,3.58285,3.58285,0,0,0-1.61328-.32519,3.07018,3.07018,0,0,0-1.71192.42187,1.33427,1.33427,0,0,0-.63964,1.17774,1.1105,1.1105,0,0,0,.63086,1.03711,7.84335,7.84335,0,0,0,1.7207.53613l2.27344.53613a5.787,5.787,0,0,1,2.24121.94043,3.1689,3.1689,0,0,1,1.1582,2.64551,3.71867,3.71867,0,0,1-1.373,2.94922,5.7903,5.7903,0,0,1-3.877,1.17285,6.33769,6.33769,0,0,1-4.02441-1.15527A3.82432,3.82432,0,0,1,192.294,249.749Z"/><path class="cls-3" d="M210.46094,247.60449a2.21209,2.21209,0,0,0-.36133-.96679,1.51644,1.51644,0,0,0-1.3125-.58008,1.72749,1.72749,0,0,0-1.73535,1.25683,5.20671,5.20671,0,0,0-.24707,1.77149,4.78079,4.78079,0,0,0,.24707,1.6914,1.67448,1.67448,0,0,0,1.6914,1.19532,1.4942,1.4942,0,0,0,1.251-.47461,2.36293,2.36293,0,0,0,.44922-1.23047H213.001a4.18374,4.18374,0,0,1-.82715,2.16211,4.0214,4.0214,0,0,1-3.49219,1.64355,4.08867,4.08867,0,0,1-3.40527-1.37109,5.5351,5.5351,0,0,1-1.09082-3.55567,5.61831,5.61831,0,0,1,1.20508-3.83593,4.19812,4.19812,0,0,1,3.32617-1.3711,5.01037,5.01037,0,0,1,2.95117.8086,3.75841,3.75841,0,0,1,1.35937,2.85644Z"/><path class="cls-3" d="M221.626,244.22168a2.81366,2.81366,0,0,1,1.18652.94043,2.51335,2.51335,0,0,1,.48047,1.10449,13.598,13.598,0,0,1,.08789,1.85156v5.62989h-2.55762v-5.834a2.57925,2.57925,0,0,0-.26172-1.249,1.312,1.312,0,0,0-1.291-.66895,1.76948,1.76948,0,0,0-1.4961.665,3.05206,3.05206,0,0,0-.51074,1.89551v5.19141h-2.50488V240.83691h2.50488v4.57032a3.05888,3.05888,0,0,1,1.25586-1.16407,3.53685,3.53685,0,0,1,1.501-.33007A4.03985,4.03985,0,0,1,221.626,244.22168Z"/><path class="cls-3" d="M231.97949,244.3623a3.9015,3.9015,0,0,1,1.65528,1.417,4.7033,4.7033,0,0,1,.76269,1.98047,12.2,12.2,0,0,1,.083,1.90136h-6.97754a2.29925,2.29925,0,0,0,1.002,2.02149,2.54471,2.54471,0,0,0,1.38086.36035,2.11992,2.11992,0,0,0,1.39063-.43945,2.08467,2.08467,0,0,0,.51562-.65918h2.55762a3.12751,3.12751,0,0,1-.92871,1.73144,4.656,4.656,0,0,1-3.60449,1.39746,5.22023,5.22023,0,0,1-3.374-1.17871,4.64286,4.64286,0,0,1-1.46191-3.835,5.184,5.184,0,0,1,1.31933-3.81738,4.61948,4.61948,0,0,1,3.42579-1.3291A5.467,5.467,0,0,1,231.97949,244.3623Zm-3.748,2.16407a2.60386,2.60386,0,0,0-.667,1.48242h4.31543a2.09106,2.09106,0,0,0-.667-1.51367,2.19855,2.19855,0,0,0-1.48633-.5166A1.9866,1.9866,0,0,0,228.23145,246.52637Z"/><path class="cls-3" d="M240.82715,244.32227a3.0412,3.0412,0,0,1,1.09863,1.05859v-4.57031h2.54v12.9375h-2.43457V252.4209a3.53325,3.53325,0,0,1-1.22168,1.23926,3.4298,3.4298,0,0,1-1.70508.38672,3.55728,3.55728,0,0,1-2.82519-1.35743,5.211,5.211,0,0,1-1.14746-3.48535,5.992,5.992,0,0,1,1.12988-3.8584,3.67213,3.67213,0,0,1,3.01855-1.40625A3.09006,3.09006,0,0,1,240.82715,244.32227Zm.61523,6.82421a3.49467,3.49467,0,0,0,.55371-2.04785,3.14076,3.14076,0,0,0-.88769-2.51367,1.91044,1.91044,0,0,0-1.26563-.457,1.75785,1.75785,0,0,0-1.6123.83105,4.47792,4.47792,0,0,0,.00781,4.1836,1.76966,1.76966,0,0,0,1.58692.79492A1.84936,1.84936,0,0,0,241.44238,251.14648Z"/><path class="cls-3" d="M249.23828,244.168v5.77441a3.04207,3.04207,0,0,0,.19238,1.23047,1.33089,1.33089,0,0,0,1.33789.72949,1.74738,1.74738,0,0,0,1.749-1.03711,3.77366,3.77366,0,0,0,.24512-1.48535V244.168h2.54v9.58008h-2.43457v-1.35352c-.02343.0293-.082.11719-.1748.26367a1.78653,1.78653,0,0,1-.333.38672,3.48,3.48,0,0,1-1.13574.7207,3.85778,3.85778,0,0,1-1.28418.19336,2.85981,2.85981,0,0,1-2.85645-1.52929,5.85385,5.85385,0,0,1-.4121-2.48731V244.168Z"/><path class="cls-3" d="M260.29492,253.74805H257.79V240.793h2.50488Z"/><path class="cls-3" d="M268.98145,244.3623a3.90153,3.90153,0,0,1,1.65527,1.417,4.70317,4.70317,0,0,1,.76269,1.98047,12.19753,12.19753,0,0,1,.083,1.90136h-6.97754a2.29926,2.29926,0,0,0,1.002,2.02149,2.54466,2.54466,0,0,0,1.38086.36035,2.11987,2.11987,0,0,0,1.39062-.43945,2.08469,2.08469,0,0,0,.51563-.65918h2.55761a3.12751,3.12751,0,0,1-.92871,1.73144,4.656,4.656,0,0,1-3.60449,1.39746,5.22022,5.22022,0,0,1-3.374-1.17871,4.64287,4.64287,0,0,1-1.46192-3.835,5.184,5.184,0,0,1,1.31934-3.81738,4.61945,4.61945,0,0,1,3.42578-1.3291A5.46709,5.46709,0,0,1,268.98145,244.3623Zm-3.748,2.16407a2.60385,2.60385,0,0,0-.667,1.48242h4.31543a2.091,2.091,0,0,0-.667-1.51367,2.19854,2.19854,0,0,0-1.48632-.5166A1.98663,1.98663,0,0,0,265.2334,246.52637Z"/><path class="cls-3" d="M278.07031,243.94434c.03223.00293.10449.00683.21582.01269v2.56641q-.2373-.02637-.42187-.03516t-.29883-.00879a2.07751,2.07751,0,0,0-2.03027.98438,3.82939,3.82939,0,0,0-.29,1.70508v4.5791h-2.52246V244.168h2.39062v1.66992a5.2961,5.2961,0,0,1,1.01074-1.30957,2.75156,2.75156,0,0,1,1.82813-.58887C277.999,243.93945,278.03809,243.94141,278.07031,243.94434Z"/><rect class="cls-3" x="200" y="2.5" width="131" height="57"/><path class="cls-2" d="M328.5,5V57h-126V5h126m5-5h-136V62h136V0Z"/><path class="cls-2" d="M221.10205,24.83691H223.563v6.98926l3.15918-3.61426h3.11523l-3.43359,3.56934,3.5664,5.9668h-3.04882l-2.32129-4.09278L223.563,34.7334v3.01465h-2.46094Z"/><path class="cls-2" d="M232.90576,33.83691a2.87969,2.87969,0,0,0,.24512,1.26563,1.68233,1.68233,0,0,0,1.65723.92285,1.83445,1.83445,0,0,0,1.28515-.50488,1.88165,1.88165,0,0,0,.54785-1.45508,1.639,1.639,0,0,0-1.0166-1.67871,5.14551,5.14551,0,0,0-1.82226-.23731v-1.793a4.71294,4.71294,0,0,0,1.69921-.23731,1.46667,1.46667,0,0,0,.832-1.49414,1.67327,1.67327,0,0,0-.42481-1.18652,1.55577,1.55577,0,0,0-1.19726-.457,1.514,1.514,0,0,0-1.30176.5625,2.39239,2.39239,0,0,0-.39844,1.50293h-2.33789a6.28623,6.28623,0,0,1,.3252-1.80176,4.03874,4.03874,0,0,1,.96582-1.37989,3.35936,3.35936,0,0,1,1.167-.68554,5.05016,5.05016,0,0,1,1.65918-.23731,4.41418,4.41418,0,0,1,2.94629.94532,3.14771,3.14771,0,0,1,1.11914,2.53515,2.80326,2.80326,0,0,1-.668,1.89844,2.28106,2.28106,0,0,1-.87891.65918,1.80782,1.80782,0,0,1,.98438.58887,3.14477,3.14477,0,0,1,.958,2.42578,4.08978,4.08978,0,0,1-1.11914,2.84375,4.26638,4.26638,0,0,1-3.31445,1.22558,4.01015,4.01015,0,0,1-3.75879-1.7666,5.25534,5.25534,0,0,1-.61426-2.46094Z"/><path class="cls-2" d="M243.09229,34.68945a1.665,1.665,0,0,0,.34472.94922,2.33383,2.33383,0,0,0,1.73047.501,2.64514,2.64514,0,0,0,1.17871-.21973.73574.73574,0,0,0,.085-1.30078,14.36341,14.36341,0,0,0-2.62011-.75586,5.44237,5.44237,0,0,1-2.30079-1.01074,2.1913,2.1913,0,0,1-.668-1.72266,2.98277,2.98277,0,0,1,1.04394-2.28027,4.1969,4.1969,0,0,1,2.9375-.9541,5.40076,5.40076,0,0,1,2.92871.71679,3.06642,3.06642,0,0,1,1.29883,2.47364h-2.50488a1.47345,1.47345,0,0,0-.27344-.76465,1.72172,1.72172,0,0,0-1.41016-.50977,2.03323,2.03323,0,0,0-1.168.25489.7342.7342,0,0,0-.34765.59765.65335.65335,0,0,0,.37012.624,16.04665,16.04665,0,0,0,2.61523.69433,4.797,4.797,0,0,1,2.24414,1.06348,2.41449,2.41449,0,0,1,.73828,1.80176,2.90848,2.90848,0,0,1-1.06152,2.32519,6.37939,6.37939,0,0,1-6.62207-.05273,3.09928,3.09928,0,0,1-1.0791-2.43067Z"/><path class="cls-2" d="M258.31494,33.749a2.63129,2.63129,0,0,0,.49317,1.32715,2.87489,2.87489,0,0,0,2.30664.79981,4.96645,4.96645,0,0,0,1.58886-.21094,1.50781,1.50781,0,0,0,1.15723-1.50293,1.10772,1.10772,0,0,0-.56738-.99316,6.14739,6.14739,0,0,0-1.79883-.60645l-1.40234-.30762a8.74089,8.74089,0,0,1-2.84083-.99316,3.159,3.159,0,0,1-1.30957-2.80371,3.72238,3.72238,0,0,1,1.28125-2.8916,5.46153,5.46153,0,0,1,3.76368-1.15137A5.76931,5.76931,0,0,1,264.523,25.501a3.85719,3.85719,0,0,1,1.53516,3.15039h-2.60157a1.8544,1.8544,0,0,0-1.04492-1.66114,3.58285,3.58285,0,0,0-1.61328-.32519,3.07014,3.07014,0,0,0-1.71191.42187,1.33426,1.33426,0,0,0-.63965,1.17774,1.1105,1.1105,0,0,0,.63086,1.03711,7.84335,7.84335,0,0,0,1.7207.53613l2.27344.53613a5.787,5.787,0,0,1,2.24121.94043,3.1689,3.1689,0,0,1,1.1582,2.64551,3.71867,3.71867,0,0,1-1.373,2.94922,5.79028,5.79028,0,0,1-3.877,1.17285,6.33771,6.33771,0,0,1-4.02441-1.15527A3.82432,3.82432,0,0,1,255.731,33.749Z"/><path class="cls-2" d="M274.41064,28.3623a3.9015,3.9015,0,0,1,1.65528,1.417,4.70317,4.70317,0,0,1,.76269,1.98047,12.19753,12.19753,0,0,1,.083,1.90136h-6.97754a2.29923,2.29923,0,0,0,1.002,2.02149,2.54465,2.54465,0,0,0,1.38085.36035,2.1199,2.1199,0,0,0,1.39063-.43945,2.08453,2.08453,0,0,0,.51562-.65918h2.55762a3.12751,3.12751,0,0,1-.92871,1.73144,4.656,4.656,0,0,1-3.60449,1.39746,5.22018,5.22018,0,0,1-3.374-1.17871,4.64287,4.64287,0,0,1-1.46192-3.835,5.18392,5.18392,0,0,1,1.31934-3.81738,4.61945,4.61945,0,0,1,3.42578-1.3291A5.467,5.467,0,0,1,274.41064,28.3623Zm-3.748,2.16407a2.60385,2.60385,0,0,0-.667,1.48242H274.311a2.091,2.091,0,0,0-.667-1.51367,2.19855,2.19855,0,0,0-1.48633-.5166A1.98662,1.98662,0,0,0,270.6626,30.52637Z"/><path class="cls-2" d="M283.49951,27.94434c.03223.00293.10449.00683.21582.01269v2.56641q-.2373-.02637-.42187-.03516t-.29883-.00879a2.07751,2.07751,0,0,0-2.03027.98438,3.82939,3.82939,0,0,0-.29,1.70508v4.5791h-2.52246V28.168h2.39062v1.66992a5.2961,5.2961,0,0,1,1.01074-1.30957,2.75156,2.75156,0,0,1,1.82813-.58887C283.42822,27.93945,283.46729,27.94141,283.49951,27.94434Z"/><path class="cls-2" d="M291.08447,28.168h2.68946l-3.459,9.58008h-2.64062L284.23877,28.168h2.8125l1.99414,7.06641Z"/><path class="cls-2" d="M301.437,28.3623a3.9015,3.9015,0,0,1,1.65528,1.417,4.7033,4.7033,0,0,1,.76269,1.98047,12.2,12.2,0,0,1,.083,1.90136h-6.97754a2.29925,2.29925,0,0,0,1.002,2.02149,2.54468,2.54468,0,0,0,1.38086.36035,2.11992,2.11992,0,0,0,1.39063-.43945,2.08467,2.08467,0,0,0,.51562-.65918h2.55762a3.12751,3.12751,0,0,1-.92871,1.73144,4.656,4.656,0,0,1-3.60449,1.39746,5.22023,5.22023,0,0,1-3.374-1.17871,4.64286,4.64286,0,0,1-1.46191-3.835,5.184,5.184,0,0,1,1.31933-3.81738,4.61948,4.61948,0,0,1,3.42579-1.3291A5.467,5.467,0,0,1,301.437,28.3623Zm-3.748,2.16407a2.60392,2.60392,0,0,0-.667,1.48242h4.31543a2.09106,2.09106,0,0,0-.667-1.51367,2.19855,2.19855,0,0,0-1.48633-.5166A1.98664,1.98664,0,0,0,297.689,30.52637Z"/><path class="cls-2" d="M310.52588,27.94434c.03223.00293.10449.00683.21582.01269v2.56641q-.2373-.02637-.42188-.03516t-.29882-.00879a2.07752,2.07752,0,0,0-2.03028.98438,3.82939,3.82939,0,0,0-.29,1.70508v4.5791h-2.52246V28.168h2.39063v1.66992a5.2961,5.2961,0,0,1,1.01074-1.30957,2.75153,2.75153,0,0,1,1.82812-.58887C310.45459,27.93945,310.49365,27.94141,310.52588,27.94434Z"/><rect class="cls-2" x="365" y="216" width="136" height="62"/><path class="cls-3" d="M392.67773,231.09863a6.04053,6.04053,0,0,1,8.7129.54492,4.67641,4.67641,0,0,1,.88671,2.417h-2.707a3.6862,3.6862,0,0,0-.66308-1.40625,2.93963,2.93963,0,0,0-4.42578.34668,5.81879,5.81879,0,0,0-.835,3.37109,5.10756,5.10756,0,0,0,.88086,3.26465,2.763,2.763,0,0,0,2.24024,1.08594,2.53728,2.53728,0,0,0,2.123-.93164,4.08658,4.08658,0,0,0,.67089-1.50293H402.251a5.83562,5.83562,0,0,1-1.77832,3.44531,5.17407,5.17407,0,0,1-3.665,1.32715,5.50129,5.50129,0,0,1-4.34766-1.793,8.4996,8.4996,0,0,1,.21777-10.16895Z"/><path class="cls-3" d="M412.22656,241.52832a5.27793,5.27793,0,0,1-7.36523,0,5.945,5.945,0,0,1,0-7.19727,5.2246,5.2246,0,0,1,7.36523,0,5.945,5.945,0,0,1,0,7.19727Zm-2.0039-1.38477a4.47256,4.47256,0,0,0,0-4.43652,2.22639,2.22639,0,0,0-3.37891,0,4.4406,4.4406,0,0,0,0,4.43652,2.21735,2.21735,0,0,0,3.37891,0Z"/><path class="cls-3" d="M422.958,233.669a3.17189,3.17189,0,0,1,.94043,2.58007v6.45118H421.332v-5.82715a2.67688,2.67688,0,0,0-.20019-1.16016,1.41076,1.41076,0,0,0-1.39649-.73828,1.73049,1.73049,0,0,0-1.73633,1.081,3.73391,3.73391,0,0,0-.24414,1.459v5.18555H415.25v-9.5625h2.42578v1.39746a4.25,4.25,0,0,1,.91016-1.06348,3.15481,3.15481,0,0,1,1.95215-.58008A3.67448,3.67448,0,0,1,422.958,233.669Z"/><path class="cls-3" d="M425.24316,234.99219V233.208h1.33594v-2.67188h2.47852V233.208h1.55566v1.78418h-1.55566v5.0625a1.13847,1.13847,0,0,0,.14941.7334,1.6436,1.6436,0,0,0,.91406.1455c.07618,0,.15625-.002.24219-.00488.084-.00293.168-.00683.25-.01269v1.87207l-1.18652.04394a3.18413,3.18413,0,0,1-2.42578-.61523,1.8318,1.8318,0,0,1-.42188-1.32715v-5.89746Z"/><path class="cls-3" d="M437.543,232.89551c.03223.00293.10449.00781.21582.01367v2.56641q-.2373-.02637-.42188-.03516t-.29882-.00879a2.07752,2.07752,0,0,0-2.03028.98438,3.82937,3.82937,0,0,0-.29,1.70507v4.57911h-2.52246v-9.58008h2.39063V234.79a5.2959,5.2959,0,0,1,1.01074-1.30957,2.75153,2.75153,0,0,1,1.82812-.58887C437.47168,232.8916,437.51074,232.89258,437.543,232.89551Z"/><path class="cls-3" d="M447.21582,241.52832a5.27793,5.27793,0,0,1-7.36523,0,5.945,5.945,0,0,1,0-7.19727,5.2246,5.2246,0,0,1,7.36523,0,5.945,5.945,0,0,1,0,7.19727Zm-2.00391-1.38477a4.4725,4.4725,0,0,0,0-4.43652,2.22638,2.22638,0,0,0-3.3789,0,4.4406,4.4406,0,0,0,0,4.43652,2.21734,2.21734,0,0,0,3.3789,0Z"/><path class="cls-3" d="M452.7793,242.7002h-2.50489V229.74512h2.50489Z"/><path class="cls-3" d="M457.78027,242.7002h-2.50488V229.74512h2.50488Z"/><path class="cls-3" d="M466.4668,233.31348a3.90376,3.90376,0,0,1,1.65527,1.418,4.70332,4.70332,0,0,1,.7627,1.98046,12.19243,12.19243,0,0,1,.083,1.90137h-6.97754a2.29926,2.29926,0,0,0,1.002,2.02149,2.54466,2.54466,0,0,0,1.38086.36035,2.11982,2.11982,0,0,0,1.39062-.43946,2.08458,2.08458,0,0,0,.51563-.65918h2.55761a3.12754,3.12754,0,0,1-.92871,1.73145,4.656,4.656,0,0,1-3.60449,1.39746,5.22556,5.22556,0,0,1-3.374-1.17871,4.645,4.645,0,0,1-1.46192-3.83594,5.187,5.187,0,0,1,1.31934-3.81738,4.61876,4.61876,0,0,1,3.42578-1.32813A5.46669,5.46669,0,0,1,466.4668,233.31348Zm-3.748,2.16406a2.60687,2.60687,0,0,0-.667,1.4834h4.31543a2.0893,2.0893,0,0,0-.667-1.51367,2.19372,2.19372,0,0,0-1.48633-.51661A1.9899,1.9899,0,0,0,462.71875,235.47754Z"/><path class="cls-3" d="M475.55566,232.89551c.03223.00293.1045.00781.21582.01367v2.56641q-.2373-.02637-.42187-.03516t-.29883-.00879a2.07751,2.07751,0,0,0-2.03027.98438,3.82937,3.82937,0,0,0-.29,1.70507v4.57911H470.208v-9.58008h2.39062V234.79a5.29589,5.29589,0,0,1,1.01075-1.30957,2.75153,2.75153,0,0,1,1.82812-.58887C475.48438,232.8916,475.52344,232.89258,475.55566,232.89551Z"/><path class="cls-3" d="M406.02441,251.34473h3.89551V264.2998h-2.52246v-8.76269q0-.37793.00879-1.05859.00879-.68117.00879-1.05079L404.96,264.2998H402.3291l-2.4375-10.87207q0,.36915.00879,1.05079.00879.68115.00879,1.05859v8.76269h-2.52246V251.34473h3.93945l2.3584,10.18652Z"/><path class="cls-3" d="M416.0166,258.47266a3.96824,3.96824,0,0,0,1.001-.21973.75327.75327,0,0,0,.54-.71191.84044.84044,0,0,0-.41407-.8125,2.61955,2.61955,0,0,0-1.21679-.22461,1.59506,1.59506,0,0,0-1.27344.43945,1.80979,1.80979,0,0,0-.35644.87891h-2.417a3.663,3.663,0,0,1,.70606-2.06543,4.11718,4.11718,0,0,1,3.4248-1.26563,6.10946,6.10946,0,0,1,2.80762.624,2.394,2.394,0,0,1,1.22656,2.35547v4.39453q0,.457.01758,1.10743a1.39246,1.39246,0,0,0,.14941.668.89806.89806,0,0,0,.36914.29v.36914h-2.7246a2.78955,2.78955,0,0,1-.15821-.54492q-.04393-.25488-.07031-.58008a5.18334,5.18334,0,0,1-1.20215.958,3.63279,3.63279,0,0,1-1.83887.46582,3.1714,3.1714,0,0,1-2.16113-.74218,2.64067,2.64067,0,0,1-.85351-2.10547,2.72711,2.72711,0,0,1,1.37207-2.55762,6.133,6.133,0,0,1,2.21386-.61524Zm1.53223,1.16894a2.77707,2.77707,0,0,1-.48535.24219,4.135,4.135,0,0,1-.67285.1709l-.57032.10547a3.7543,3.7543,0,0,0-1.15136.34277,1.144,1.144,0,0,0-.5918,1.06348,1.11147,1.11147,0,0,0,.36133.92773,1.37427,1.37427,0,0,0,.8789.28516,2.61651,2.61651,0,0,0,1.5127-.47461,2.01014,2.01014,0,0,0,.71875-1.73145Z"/><path class="cls-3" d="M429.959,255.26953a3.16968,3.16968,0,0,1,.94043,2.5791v6.45117H428.333v-5.82714a2.67687,2.67687,0,0,0-.2002-1.16016,1.41074,1.41074,0,0,0-1.39648-.73828A1.73048,1.73048,0,0,0,425,257.65527a3.73372,3.73372,0,0,0-.24414,1.459v5.18554H422.251v-9.5625h2.42578v1.39747a4.25016,4.25016,0,0,1,.91015-1.06348,3.15486,3.15486,0,0,1,1.95215-.58008A3.675,3.675,0,0,1,429.959,255.26953Z"/><path class="cls-3" d="M437.02246,258.47266a3.96824,3.96824,0,0,0,1.001-.21973.75327.75327,0,0,0,.54-.71191.84044.84044,0,0,0-.41407-.8125,2.61955,2.61955,0,0,0-1.21679-.22461,1.59506,1.59506,0,0,0-1.27344.43945,1.80979,1.80979,0,0,0-.35645.87891h-2.417a3.663,3.663,0,0,1,.70606-2.06543,4.11718,4.11718,0,0,1,3.4248-1.26563,6.10946,6.10946,0,0,1,2.80762.624,2.394,2.394,0,0,1,1.22656,2.35547v4.39453q0,.457.01758,1.10743a1.39246,1.39246,0,0,0,.14941.668.898.898,0,0,0,.36914.29v.36914H438.8623a2.79018,2.79018,0,0,1-.1582-.54492q-.04395-.25488-.07031-.58008a5.18334,5.18334,0,0,1-1.20215.958,3.63279,3.63279,0,0,1-1.83887.46582,3.1714,3.1714,0,0,1-2.16113-.74218,2.64064,2.64064,0,0,1-.85351-2.10547,2.72711,2.72711,0,0,1,1.37207-2.55762,6.133,6.133,0,0,1,2.21386-.61524Zm1.53223,1.16894a2.77707,2.77707,0,0,1-.48535.24219,4.13488,4.13488,0,0,1-.67286.1709l-.57031.10547a3.75447,3.75447,0,0,0-1.15137.34277,1.144,1.144,0,0,0-.59179,1.06348,1.11147,1.11147,0,0,0,.36133.92773,1.37427,1.37427,0,0,0,.8789.28516,2.61651,2.61651,0,0,0,1.5127-.47461,2.01014,2.01014,0,0,0,.71875-1.73145Z"/><path class="cls-3" d="M447.97852,254.71094a3.00989,3.00989,0,0,1,1.47461,1.38867v-1.37988h2.44335v9.08789a5.08963,5.08963,0,0,1-.624,2.79492q-1.07226,1.61718-4.11328,1.61719a5.60487,5.60487,0,0,1-2.99707-.72071,2.659,2.659,0,0,1-1.2832-2.15332h2.72461a1.128,1.128,0,0,0,.34277.63282,2.117,2.117,0,0,0,1.3623.34277,1.83011,1.83011,0,0,0,1.81055-.90527,4.58509,4.58509,0,0,0,.29883-1.95118v-.61523a3.05462,3.05462,0,0,1-.77344.92285,3.11013,3.11013,0,0,1-1.94238.57129,3.673,3.673,0,0,1-2.94824-1.2959,5.2376,5.2376,0,0,1-1.10352-3.51172,5.92309,5.92309,0,0,1,1.0625-3.58984,3.50686,3.50686,0,0,1,3.01074-1.45508A3.2929,3.2929,0,0,1,447.97852,254.71094Zm.85351,6.86914a3.08392,3.08392,0,0,0,.60352-2.11426,3.24646,3.24646,0,0,0-.57325-2.07422,1.87078,1.87078,0,0,0-1.53613-.71191,1.80982,1.80982,0,0,0-1.81152,1.23926,4.41613,4.41613,0,0,0-.2627,1.626,3.71035,3.71035,0,0,0,.28028,1.48535,1.825,1.825,0,0,0,1.82031,1.21289A1.92555,1.92555,0,0,0,448.832,261.58008Z"/><path class="cls-3" d="M460.47754,254.91406a3.90146,3.90146,0,0,1,1.65527,1.417,4.70328,4.70328,0,0,1,.7627,1.98047,12.20018,12.20018,0,0,1,.083,1.90137H456.001a2.29923,2.29923,0,0,0,1.00195,2.02149,2.54466,2.54466,0,0,0,1.38086.36035,2.11982,2.11982,0,0,0,1.39062-.43946,2.08443,2.08443,0,0,0,.51563-.65918h2.55762a3.12766,3.12766,0,0,1-.92871,1.73145,4.65606,4.65606,0,0,1-3.6045,1.39746,5.22022,5.22022,0,0,1-3.374-1.17871,4.64288,4.64288,0,0,1-1.46191-3.835,5.184,5.184,0,0,1,1.31933-3.81738,4.61941,4.61941,0,0,1,3.42578-1.32911A5.4669,5.4669,0,0,1,460.47754,254.91406Zm-3.748,2.16406a2.604,2.604,0,0,0-.667,1.48243h4.31543a2.09106,2.09106,0,0,0-.667-1.51367,2.19852,2.19852,0,0,0-1.48633-.51661A1.98667,1.98667,0,0,0,456.72949,257.07812Z"/><path class="cls-3" d="M469.56641,254.49609c.03222.00293.10449.00684.21582.0127v2.56641q-.23732-.02637-.42188-.03516t-.29883-.00879a2.07752,2.07752,0,0,0-2.03027.98437,3.82942,3.82942,0,0,0-.29,1.70508v4.5791h-2.52246v-9.58007h2.39063v1.66992a5.29566,5.29566,0,0,1,1.01074-1.30957,2.75153,2.75153,0,0,1,1.82812-.58887C469.49512,254.49121,469.53418,254.49316,469.56641,254.49609Z"/><polyline class="cls-4" points="235 216 235 196 312 195 312 168.254"/><polygon class="cls-2" points="324.27 178.194 322.072 180.24 312.003 169.405 301.931 180.24 299.733 178.194 312.003 165 324.27 178.194"/><polyline class="cls-4" points="433 216 433 196 356 195 356 168.254"/><polygon class="cls-2" points="368.27 178.194 366.072 180.24 356.003 169.405 345.931 180.24 343.733 178.194 356.003 165 368.27 178.194"/><path class="cls-3" d="M73.669,126.68945a1.665,1.665,0,0,0,.34472.94922,2.33383,2.33383,0,0,0,1.73047.501,2.64514,2.64514,0,0,0,1.17871-.21973.73574.73574,0,0,0,.085-1.30078,14.36341,14.36341,0,0,0-2.62011-.75586,5.44237,5.44237,0,0,1-2.30079-1.01074,2.1913,2.1913,0,0,1-.668-1.72266,2.98277,2.98277,0,0,1,1.04394-2.28027,4.1969,4.1969,0,0,1,2.9375-.9541,5.40076,5.40076,0,0,1,2.92871.71679,3.06642,3.06642,0,0,1,1.29883,2.47364H77.12305a1.47345,1.47345,0,0,0-.27344-.76465,1.72172,1.72172,0,0,0-1.41016-.50977,2.03323,2.03323,0,0,0-1.168.25489.7342.7342,0,0,0-.34765.59765.65337.65337,0,0,0,.37012.624,16.04665,16.04665,0,0,0,2.61523.69433,4.797,4.797,0,0,1,2.24414,1.06348,2.41449,2.41449,0,0,1,.73828,1.80176,2.90848,2.90848,0,0,1-1.06152,2.32519,4.99152,4.99152,0,0,1-3.28028.90039,4.94379,4.94379,0,0,1-3.34179-.95312,3.09928,3.09928,0,0,1-1.0791-2.43067Z"/><path class="cls-3" d="M87.09863,120.50293a3.84934,3.84934,0,0,1,.87891,1.10059v-1.418h2.417v13.35937H87.916v-4.9834a2.66567,2.66567,0,0,1-.96289,1.03321,3.322,3.322,0,0,1-1.8584.45215,3.63651,3.63651,0,0,1-2.83008-1.32813,5.17293,5.17293,0,0,1-1.169-3.54492,5.85012,5.85012,0,0,1,1.17383-3.82617,3.60313,3.60313,0,0,1,2.89551-1.43457A3.00849,3.00849,0,0,1,87.09863,120.50293Zm.53516,6.291a4.248,4.248,0,0,0,.35254-1.84864,3.94161,3.94161,0,0,0-.29981-1.57617,1.90277,1.90277,0,0,0-1.88476-1.25,1.85042,1.85042,0,0,0-1.52735.73047,3.54675,3.54675,0,0,0-.57714,2.21875,4.25569,4.25569,0,0,0,.26464,1.62793,1.81508,1.81508,0,0,0,1.83106,1.206A1.89451,1.89451,0,0,0,87.63379,126.794Z"/><path class="cls-3" d="M95.29,129.74805H92.78516V116.793H95.29Z"/><path class="cls-3" d="M100.30859,119.02539h-2.54v-2.31152h2.54Zm-2.54,1.14258h2.54v9.58008h-2.54Z"/><path class="cls-3" d="M101.75,122.04v-1.78418h1.33594V117.584h2.47851v2.67188h1.55567V122.04h-1.55567v5.0625a1.14192,1.14192,0,0,0,.14942.73437,1.64679,1.64679,0,0,0,.91406.14454c.07617,0,.15625-.001.24219-.00391.084-.00293.168-.00781.25-.01367v1.87207l-1.18653.04394a3.18416,3.18416,0,0,1-2.42578-.61523,1.83178,1.83178,0,0,1-.42187-1.32715V122.04Z"/><path class="cls-3" d="M114.97168,120.3623a3.90142,3.90142,0,0,1,1.65527,1.417,4.70318,4.70318,0,0,1,.7627,1.98047,12.2,12.2,0,0,1,.083,1.90136h-6.97754a2.29923,2.29923,0,0,0,1.00195,2.02149,2.54466,2.54466,0,0,0,1.38086.36035,2.11987,2.11987,0,0,0,1.39062-.43945,2.08455,2.08455,0,0,0,.51563-.65918h2.55762a3.12764,3.12764,0,0,1-.92871,1.73144,4.65606,4.65606,0,0,1-3.6045,1.39746,5.22022,5.22022,0,0,1-3.374-1.17871,4.64286,4.64286,0,0,1-1.46191-3.835,5.184,5.184,0,0,1,1.31933-3.81738,4.61946,4.61946,0,0,1,3.42578-1.3291A5.46706,5.46706,0,0,1,114.97168,120.3623Zm-3.74805,2.16407a2.60392,2.60392,0,0,0-.667,1.48242h4.31543a2.09106,2.09106,0,0,0-.667-1.51367,2.19857,2.19857,0,0,0-1.48633-.5166A1.98664,1.98664,0,0,0,111.22363,122.52637Z"/><path class="cls-3" d="M120.50586,125.83691a2.87969,2.87969,0,0,0,.24512,1.26563,1.68231,1.68231,0,0,0,1.65722.92285,1.83448,1.83448,0,0,0,1.28516-.50488,1.88168,1.88168,0,0,0,.54785-1.45508,1.639,1.639,0,0,0-1.0166-1.67871,5.14554,5.14554,0,0,0-1.82227-.23731v-1.793a4.713,4.713,0,0,0,1.69922-.23731,1.46667,1.46667,0,0,0,.832-1.49414,1.67327,1.67327,0,0,0-.4248-1.18652,1.55578,1.55578,0,0,0-1.19727-.457,1.51395,1.51395,0,0,0-1.30175.5625,2.39239,2.39239,0,0,0-.39844,1.50293h-2.33789a6.28622,6.28622,0,0,1,.32519-1.80176,4.03888,4.03888,0,0,1,.96582-1.37989,3.35949,3.35949,0,0,1,1.167-.68554,5.05016,5.05016,0,0,1,1.65918-.23731,4.41414,4.41414,0,0,1,2.94628.94532,3.14768,3.14768,0,0,1,1.11914,2.53515,2.80326,2.80326,0,0,1-.668,1.89844,2.28106,2.28106,0,0,1-.87891.65918,1.80778,1.80778,0,0,1,.98437.58887,3.14474,3.14474,0,0,1,.958,2.42578,4.08978,4.08978,0,0,1-1.11914,2.84375,4.26638,4.26638,0,0,1-3.31445,1.22558,4.01014,4.01014,0,0,1-3.75879-1.7666,5.25534,5.25534,0,0,1-.61426-2.46094Z"/><line class="cls-5" x1="455" y1="124" x2="567" y2="124"/><path class="cls-2" d="M446.96775,125.0542l.83244.03662c-.51994.85693.68367,3.91357,3.17146,3.49365-.3247,1.66748,1.09619,2.69532,2.70752,2.28028a8.76036,8.76036,0,0,1,4.63135-.04395c3.01514.5542,6.47949,1.48438,10.04639-.5957a.56288.56288,0,0,1,.76538.20508c.17212.39062.04272,1.54785,1.01684,1.56982H473.772c1.29638,0,2.334-1.897,2.31445-7.91748-.01961-6.26953-.08911-8.72559-2.68311-8.75-2.54638-.01953-3.252,0-3.252,0-.81055.02441-.93994.56152-1.06689.91553a.45513.45513,0,0,1-.58716.19775,24.98913,24.98913,0,0,0-6.3221-1.83105c-2.57813-.271-3.58643-1.05225-5.32219-.78614-2.05566.31739-8.70605.09766-10.6958.06836-1.9458-.02441-5.06836.60547-9.21387.51026-3.95752-.09034-3.977,4.48974-.41748,4.28222,2.81494-.16357,2.909.17823,3.87947.0586a25.95662,25.95662,0,0,1,4.90715.08056,22.91864,22.91864,0,0,1,3.04444.04639,12.63313,12.63313,0,0,0-2.40967,1.13525C443.91111,121.02832,445.09275,124.93945,446.96775,125.0542Z"/><path class="cls-3" d="M470.90329,123.438a45.06842,45.06842,0,0,1-.55664,7.22168c-.13183.37109.1416.603.6958.55176.38575-.03174,2.33643-.01954,2.33643-.01954.85693,0,1.89941-.88134,1.89941-7.54882-.04638-6.897-.32348-7.77832-2.36084-7.77832l-2.52441.07324a.46786.46786,0,0,0-.34668.27344C469.84739,116.60205,470.72751,117.12207,470.90329,123.438Z"/><path class="cls-3" d="M465.01462,124.10938a.38688.38688,0,0,1,.1001.39062c-.23193.43945-.73975.105-1.13281.0708-.32471-.02685-2.085-.32471-2.73194.09522a4.86466,4.86466,0,0,0-2.36084,2.98095,2.60107,2.60107,0,0,1-1.46,1.57715c-.59326.19043-.49316.7959.01221.84473a23.06112,23.06112,0,0,0,5.98381.68115c3.357-.18311,6.504-.835,6.71394-5.30029a34.095,34.095,0,0,0-.39184-7.12891c-.36743-1.25976-1.39038-1.25-2.29248-1.71387-3.74146-1.60888-6.24146-1.50879-8.31185-1.96777a2.47515,2.47515,0,0,0-2.47551.23193c-2.21679,1.55518-4.88525,2.085-5.53466,2.54883-.448.28809-.57618.43457-.647.59815-.11352.26855-.57861.30273-.97168.625a2.69448,2.69448,0,0,1-.64941.3955c.37109.4834.70557-.05859,1.2207.99366a1.3159,1.3159,0,0,1-.08545.83252c-.24414.42968-1.15722.498-1.51611.56152-.28572.05371-.62752.10742-.94971.16846-.85693.16357-1.11572-.71534-1.145-.40284-.15876,1.57227,1.95557,1.25,2.64893,1.13282a12.70292,12.70292,0,0,0,1.95923-.57862c.29907-.23193,1.89087-.27832,1.87256-1.40136.02311-.18067-.011-.58594.48706-.40284.376.13672,2.17285.12207,2.4414-.3955a.99017.99017,0,0,1,.498-.50782c.25383-.11474.40527.03174.37109.32227-.04516.37109-.01709.87891.50774.99609a1.10375,1.10375,0,0,0,1.01814-.06836,3.93077,3.93077,0,0,1,1.29639-.57861c.24414.07813.43449.26611-.13916.52979a1.21454,1.21454,0,0,0-.25391,2.03613c1.29151,1.40869.87639,1.51611,5.45655,1.66992A.59735.59735,0,0,1,465.01462,124.10938Z"/><path class="cls-3" d="M457.51218,124.18994c.60051-.7666,1.06445-1.02051.49561-1.77-.06836-.144-.27588-.144-.84473-.01221-.30037.06836-1.30615,1.28174-.42725,2.09229C456.94333,124.61475,457.17519,124.69775,457.51218,124.18994Z"/><path class="cls-3" d="M458.47165,126.58252c.36621.11719.94971-1.57959.9253-1.68945-.03907-.16114-.06348-.33692-.81055-.39307a1.31544,1.31544,0,0,0-.879,1.36475C457.75632,126.353,458.40085,126.563,458.47165,126.58252Z"/><path class="cls-3" d="M455.45163,122.3125c.32227-.35645,1.04981-1.02051.84473-1.37451-.24658-.42481-.52979-.63965-1.28418-.3711a1.12939,1.12939,0,0,0-.42976,1.98731C454.89492,122.68115,455.01218,122.78857,455.45163,122.3125Z"/><path class="cls-3" d="M451.63327,128.56006c-.5249,2.18994,1.88469,2.02637,2.85645,1.45019,1.56006-.92773,2.91748-1.15722,3.44971-1.78222.30029-.35157.74218-1.25.30029-1.29395a1.879,1.879,0,0,1-.94971-.55908c-.08545-.08057.03662-.68115-.09033-.66895-.09277.022.06828.647-1.43555,1.38672a19.93587,19.93587,0,0,1-2.54638.97168,11.463,11.463,0,0,1-1.43555.35889C451.65525,128.44775,451.6406,128.51367,451.63327,128.56006Z"/><path class="cls-3" d="M448.71335,125.10059a18.39177,18.39177,0,0,1,2.72217.02441c2.03613.20752,2.93945-.57373,3.37891-1.1499.41748-.39063.53222-.71533.85693-.979.26115-.21.54436-.66162.37109.03418-.08545.3418-.36255.5542-.13923,1.12549a1.89261,1.89261,0,0,0,.879.92285c.0708.02442.15259.03418.09277.06836a2.96032,2.96032,0,0,1-2.08252,1.66992c-2.26562.58594-3.269,1.145-3.74511,1.23047a1.1302,1.1302,0,0,1-.315,0,1.7747,1.7747,0,0,1-1.17187-.32959,2.58365,2.58365,0,0,1-1.07918-2.37548C448.54,125.20312,448.61081,125.10059,448.71335,125.10059Z"/><path class="cls-3" d="M445.647,121.28223c-.16114,0-.43457,2.45361,1.27441,3.07861a5.50953,5.50953,0,0,0,2.12883.11719c1.43562-.0708,2.588.03418,3.17146.022a2.63387,2.63387,0,0,0,1.98975-.6958c.23193-.249.75432-.64453.40527-.78613a1.28607,1.28607,0,0,1-.8667-.76172c-.39306-.74219.12451-1.24024-.33691-1.04492a3.1927,3.1927,0,0,0-.84473.48828c-1.62353,1.15234-6.78222,2.38281-6.66511-.21C445.87888,121.3042,445.71775,121.16992,445.647,121.28223Z"/><path class="cls-3" d="M448.26413,119.5a1.44743,1.44743,0,0,0-.71777.25635c-.32471.13672-1.48193.34668-.94971,1.01562.53223.67383,2.10816.09278,2.66114-.08789a.46957.46957,0,0,0,.32463-.46631C449.58242,120.01025,449.44333,119.5,448.26413,119.5Z"/><path class="cls-3" d="M439.60683,115.01025c1.272.022,4.2115-.64941,5.763-.34423,1.89811-.35157,5.18432.022,6.27311-.07325a31.92851,31.92851,0,0,1,4.4458,0,16.47219,16.47219,0,0,1-4.2382,1.897,3.36068,3.36068,0,0,0-2.10571,1.438c-1.63216.26612-4.01.37842-4.11988.14893-.05371-.10986-.08308-.23682-.3833-.17334-.26611.05859-.127.127-.625.14893-2.56836.0708-3.93181.02441-3.93181.02441-.57029-.03418-.37979-.24658-.58227-.30029-.1783-.04639-.04524.1416-.64705.20752a23.381,23.381,0,0,1-3.41545.11718c-2.01424.04395-2.48055-3.00293.92773-3.1372C439.28205,114.87109,439.25786,115.07861,439.60683,115.01025Z"/></svg>