<?xml version="1.0" encoding="utf-8"?>
<!-- Generator: Adobe Illustrator 23.0.1, SVG Export Plug-In . SVG Version: 6.00 Build 0)  -->
<svg version="1.1" id="Layer_1" xmlns="http://www.w3.org/2000/svg" xmlns:xlink="http://www.w3.org/1999/xlink" x="0px" y="0px"
	 viewBox="0 0 322.2 147.5" style="enable-background:new 0 0 322.2 147.5;" xml:space="preserve">
<style type="text/css">
	.st0{fill:#1F2326;}
	.st1{fill:#FCEE21;}
	.st2{fill:#FFFFFF;}
</style>
<title>logo</title>
<g>
	<g>
		<rect x="66.7" y="11.1" class="st0" width="11.1" height="11.1"/>
		<rect x="55.6" y="11.1" class="st0" width="11.1" height="11.1"/>
		<rect x="33.3" y="11.1" class="st0" width="11.1" height="11.1"/>
		<rect x="66.7" y="22.2" class="st1" width="11.1" height="11.1"/>
		<rect x="44.4" y="11.1" class="st0" width="11.1" height="11.1"/>
		<rect x="66.7" y="55.6" class="st0" width="11.1" height="11.1"/>
		<rect x="66.7" y="66.7" class="st1" width="11.1" height="11.1"/>
		<rect x="22.2" y="11.1" class="st0" width="11.1" height="11.1"/>
		<rect x="66.7" y="44.4" class="st0" width="11.1" height="11.1"/>
		<rect x="66.7" y="33.3" class="st0" width="11.1" height="11.1"/>
		<rect x="11.1" y="33.3" class="st0" width="11.1" height="11.1"/>
		<rect x="11.1" y="66.7" class="st0" width="11.1" height="11.1"/>
		<rect x="11.1" y="77.8" class="st0" width="11.1" height="11.1"/>
		<rect x="22.2" y="77.8" class="st0" width="11.1" height="11.1"/>
		<rect x="33.3" y="77.8" class="st0" width="11.1" height="11.1"/>
		<rect x="55.6" y="66.7" class="st0" width="11.1" height="11.1"/>
		<rect x="11.1" y="22.2" class="st0" width="11.1" height="11.1"/>
		<rect x="11.1" y="55.6" class="st0" width="11.1" height="11.1"/>
		<rect x="11.1" y="11.1" class="st0" width="11.1" height="11.1"/>
		<rect x="11.1" y="44.4" class="st0" width="11.1" height="11.1"/>
		<rect x="44.4" y="44.4" class="st1" width="11.1" height="11.1"/>
		<rect x="55.6" y="55.6" class="st2" width="11.1" height="11.1"/>
		<rect x="44.4" y="55.6" class="st0" width="11.1" height="11.1"/>
		<rect x="44.4" y="66.7" class="st0" width="11.1" height="11.1"/>
		<rect x="55.6" y="44.4" class="st0" width="11.1" height="11.1"/>
		<rect x="33.3" y="33.3" class="st0" width="11.1" height="11.1"/>
		<rect x="44.4" y="33.3" class="st0" width="11.1" height="11.1"/>
		<rect x="44.4" y="77.8" class="st0" width="11.1" height="11.1"/>
		<rect x="33.3" y="44.4" class="st0" width="11.1" height="11.1"/>
		<rect x="55.6" y="33.3" class="st2" width="11.1" height="11.1"/>
		<rect x="33.3" y="55.6" class="st0" width="11.1" height="11.1"/>
		<rect x="22.2" y="66.7" class="st2" width="11.1" height="11.1"/>
		<rect x="22.2" y="55.6" class="st2" width="11.1" height="11.1"/>
		<rect x="33.3" y="66.7" class="st0" width="11.1" height="11.1"/>
		<rect x="22.2" y="44.4" class="st2" width="11.1" height="11.1"/>
		<rect x="55.6" y="22.2" class="st0" width="11.1" height="11.1"/>
		<rect x="33.3" y="22.2" class="st0" width="11.1" height="11.1"/>
		<rect x="22.2" y="33.3" class="st2" width="11.1" height="11.1"/>
		<rect x="44.4" y="22.2" class="st0" width="11.1" height="11.1"/>
		<rect x="22.2" y="22.2" class="st2" width="11.1" height="11.1"/>
		<rect x="88.9" y="44.4" class="st0" width="11.1" height="11.1"/>
		<rect x="33.3" y="88.9" class="st0" width="11.1" height="11.1"/>
		<rect x="66.7" y="88.9" class="st0" width="11.1" height="11.1"/>
		<rect x="11.1" y="88.9" class="st0" width="11.1" height="11.1"/>
		<rect x="55.6" y="88.9" class="st0" width="11.1" height="11.1"/>
		<rect x="44.4" y="88.9" class="st0" width="11.1" height="11.1"/>
		<rect x="22.2" y="88.9" class="st0" width="11.1" height="11.1"/>
		<rect y="66.7" class="st0" width="11.1" height="11.1"/>
		<rect y="55.6" class="st0" width="11.1" height="11.1"/>
		<rect y="77.8" class="st0" width="11.1" height="11.1"/>
		<rect y="88.9" class="st0" width="11.1" height="11.1"/>
		<rect x="88.9" class="st0" width="11.1" height="11.1"/>
		<rect x="88.9" y="22.2" class="st0" width="11.1" height="11.1"/>
		<rect x="77.8" y="88.9" class="st0" width="11.1" height="11.1"/>
		<rect x="88.9" y="33.3" class="st0" width="11.1" height="11.1"/>
		<rect y="44.4" class="st0" width="11.1" height="11.1"/>
		<rect x="88.9" y="11.1" class="st0" width="11.1" height="11.1"/>
		<rect x="88.9" y="77.8" class="st0" width="11.1" height="11.1"/>
		<rect x="88.9" y="88.9" class="st0" width="11.1" height="11.1"/>
		<rect x="88.9" y="66.7" class="st0" width="11.1" height="11.1"/>
		<rect x="88.9" y="55.6" class="st0" width="11.1" height="11.1"/>
		<rect x="77.8" y="66.7" class="st0" width="11.1" height="11.1"/>
		<rect x="77.8" y="44.4" class="st0" width="11.1" height="11.1"/>
		<rect x="77.8" y="22.2" class="st0" width="11.1" height="11.1"/>
		<rect x="77.8" y="33.3" class="st0" width="11.1" height="11.1"/>
		<rect x="77.8" y="11.1" class="st0" width="11.1" height="11.1"/>
		<rect x="66.7" y="77.8" class="st0" width="11.1" height="11.1"/>
		<rect x="77.8" class="st0" width="11.1" height="11.1"/>
		<rect x="77.8" y="77.8" class="st0" width="11.1" height="11.1"/>
		<rect x="77.8" y="55.6" class="st0" width="11.1" height="11.1"/>
		<rect x="55.6" y="77.8" class="st0" width="11.1" height="11.1"/>
		<rect y="11.1" class="st0" width="11.1" height="11.1"/>
		<rect y="33.3" class="st0" width="11.1" height="11.1"/>
		<rect x="11.1" class="st0" width="11.1" height="11.1"/>
		<rect class="st0" width="11.1" height="11.1"/>
		<rect y="22.2" class="st0" width="11.1" height="11.1"/>
		<rect x="22.2" class="st0" width="11.1" height="11.1"/>
		<rect x="44.4" class="st0" width="11.1" height="11.1"/>
		<rect x="66.7" class="st0" width="11.1" height="11.1"/>
		<rect x="55.6" class="st0" width="11.1" height="11.1"/>
		<rect x="33.3" class="st0" width="11.1" height="11.1"/>
	</g>
	<g>
		<rect x="177.8" y="11.1" class="st0" width="11.1" height="11.1"/>
		<rect x="166.7" y="11.1" class="st0" width="11.1" height="11.1"/>
		<rect x="144.4" y="11.1" class="st0" width="11.1" height="11.1"/>
		<rect x="177.8" y="22.2" class="st0" width="11.1" height="11.1"/>
		<rect x="155.6" y="11.1" class="st0" width="11.1" height="11.1"/>
		<rect x="177.8" y="55.6" class="st1" width="11.1" height="11.1"/>
		<rect x="177.8" y="66.7" class="st0" width="11.1" height="11.1"/>
		<rect x="133.3" y="11.1" class="st0" width="11.1" height="11.1"/>
		<rect x="177.8" y="44.4" class="st0" width="11.1" height="11.1"/>
		<rect x="177.8" y="33.3" class="st1" width="11.1" height="11.1"/>
		<rect x="122.2" y="33.3" class="st0" width="11.1" height="11.1"/>
		<rect x="122.2" y="66.7" class="st0" width="11.1" height="11.1"/>
		<rect x="122.2" y="77.8" class="st0" width="11.1" height="11.1"/>
		<rect x="133.3" y="77.8" class="st0" width="11.1" height="11.1"/>
		<rect x="144.4" y="77.8" class="st0" width="11.1" height="11.1"/>
		<rect x="166.7" y="66.7" class="st1" width="11.1" height="11.1"/>
		<rect x="122.2" y="22.2" class="st0" width="11.1" height="11.1"/>
		<rect x="122.2" y="55.6" class="st0" width="11.1" height="11.1"/>
		<rect x="122.2" y="11.1" class="st0" width="11.1" height="11.1"/>
		<rect x="122.2" y="44.4" class="st0" width="11.1" height="11.1"/>
		<rect x="155.6" y="44.4" class="st1" width="11.1" height="11.1"/>
		<rect x="166.7" y="55.6" class="st0" width="11.1" height="11.1"/>
		<rect x="155.6" y="55.6" class="st0" width="11.1" height="11.1"/>
		<rect x="155.6" y="66.7" class="st1" width="11.1" height="11.1"/>
		<rect x="166.7" y="44.4" class="st1" width="11.1" height="11.1"/>
		<rect x="144.4" y="33.3" class="st0" width="11.1" height="11.1"/>
		<rect x="155.6" y="33.3" class="st0" width="11.1" height="11.1"/>
		<rect x="155.6" y="77.8" class="st0" width="11.1" height="11.1"/>
		<rect x="144.4" y="44.4" class="st0" width="11.1" height="11.1"/>
		<rect x="166.7" y="33.3" class="st0" width="11.1" height="11.1"/>
		<rect x="144.4" y="55.6" class="st0" width="11.1" height="11.1"/>
		<rect x="133.3" y="66.7" class="st0" width="11.1" height="11.1"/>
		<rect x="133.3" y="55.6" class="st1" width="11.1" height="11.1"/>
		<rect x="144.4" y="66.7" class="st1" width="11.1" height="11.1"/>
		<rect x="133.3" y="44.4" class="st0" width="11.1" height="11.1"/>
		<rect x="166.7" y="22.2" class="st1" width="11.1" height="11.1"/>
		<rect x="144.4" y="22.2" class="st1" width="11.1" height="11.1"/>
		<rect x="133.3" y="33.3" class="st1" width="11.1" height="11.1"/>
		<rect x="155.6" y="22.2" class="st1" width="11.1" height="11.1"/>
		<rect x="133.3" y="22.2" class="st0" width="11.1" height="11.1"/>
		<rect x="200" y="44.4" class="st0" width="11.1" height="11.1"/>
		<rect x="144.4" y="88.9" class="st0" width="11.1" height="11.1"/>
		<rect x="177.8" y="88.9" class="st0" width="11.1" height="11.1"/>
		<rect x="122.2" y="88.9" class="st0" width="11.1" height="11.1"/>
		<rect x="166.7" y="88.9" class="st0" width="11.1" height="11.1"/>
		<rect x="155.6" y="88.9" class="st0" width="11.1" height="11.1"/>
		<rect x="133.3" y="88.9" class="st0" width="11.1" height="11.1"/>
		<rect x="111.1" y="66.7" class="st0" width="11.1" height="11.1"/>
		<rect x="111.1" y="55.6" class="st0" width="11.1" height="11.1"/>
		<rect x="111.1" y="77.8" class="st0" width="11.1" height="11.1"/>
		<rect x="111.1" y="88.9" class="st0" width="11.1" height="11.1"/>
		<rect x="200" class="st0" width="11.1" height="11.1"/>
		<rect x="200" y="22.2" class="st0" width="11.1" height="11.1"/>
		<rect x="188.9" y="88.9" class="st0" width="11.1" height="11.1"/>
		<rect x="200" y="33.3" class="st0" width="11.1" height="11.1"/>
		<rect x="111.1" y="44.4" class="st0" width="11.1" height="11.1"/>
		<rect x="200" y="11.1" class="st0" width="11.1" height="11.1"/>
		<rect x="200" y="77.8" class="st0" width="11.1" height="11.1"/>
		<rect x="200" y="88.9" class="st0" width="11.1" height="11.1"/>
		<rect x="200" y="66.7" class="st0" width="11.1" height="11.1"/>
		<rect x="200" y="55.6" class="st0" width="11.1" height="11.1"/>
		<rect x="188.9" y="66.7" class="st0" width="11.1" height="11.1"/>
		<rect x="188.9" y="44.4" class="st0" width="11.1" height="11.1"/>
		<rect x="188.9" y="22.2" class="st0" width="11.1" height="11.1"/>
		<rect x="188.9" y="33.3" class="st0" width="11.1" height="11.1"/>
		<rect x="188.9" y="11.1" class="st0" width="11.1" height="11.1"/>
		<rect x="177.8" y="77.8" class="st0" width="11.1" height="11.1"/>
		<rect x="188.9" class="st0" width="11.1" height="11.1"/>
		<rect x="188.9" y="77.8" class="st0" width="11.1" height="11.1"/>
		<rect x="188.9" y="55.6" class="st0" width="11.1" height="11.1"/>
		<rect x="166.7" y="77.8" class="st0" width="11.1" height="11.1"/>
		<rect x="111.1" y="11.1" class="st0" width="11.1" height="11.1"/>
		<rect x="111.1" y="33.3" class="st0" width="11.1" height="11.1"/>
		<rect x="122.2" class="st0" width="11.1" height="11.1"/>
		<rect x="111.1" class="st0" width="11.1" height="11.1"/>
		<rect x="111.1" y="22.2" class="st0" width="11.1" height="11.1"/>
		<rect x="133.3" class="st0" width="11.1" height="11.1"/>
		<rect x="155.6" class="st0" width="11.1" height="11.1"/>
		<rect x="177.8" class="st0" width="11.1" height="11.1"/>
		<rect x="166.7" class="st0" width="11.1" height="11.1"/>
		<rect x="144.4" class="st0" width="11.1" height="11.1"/>
	</g>
	<g>
		<rect x="288.9" y="11.1" class="st0" width="11.1" height="11.1"/>
		<rect x="277.8" y="11.1" class="st0" width="11.1" height="11.1"/>
		<rect x="255.6" y="11.1" class="st0" width="11.1" height="11.1"/>
		<rect x="288.9" y="22.2" class="st2" width="11.1" height="11.1"/>
		<rect x="266.7" y="11.1" class="st0" width="11.1" height="11.1"/>
		<rect x="288.9" y="55.6" class="st2" width="11.1" height="11.1"/>
		<rect x="288.9" y="66.7" class="st0" width="11.1" height="11.1"/>
		<rect x="244.4" y="11.1" class="st0" width="11.1" height="11.1"/>
		<rect x="288.9" y="44.4" class="st0" width="11.1" height="11.1"/>
		<rect x="288.9" y="33.3" class="st0" width="11.1" height="11.1"/>
		<rect x="233.3" y="33.3" class="st0" width="11.1" height="11.1"/>
		<rect x="233.3" y="66.7" class="st0" width="11.1" height="11.1"/>
		<rect x="233.3" y="77.8" class="st0" width="11.1" height="11.1"/>
		<rect x="244.4" y="77.8" class="st0" width="11.1" height="11.1"/>
		<rect x="255.6" y="77.8" class="st0" width="11.1" height="11.1"/>
		<rect x="277.8" y="66.7" class="st2" width="11.1" height="11.1"/>
		<rect x="233.3" y="22.2" class="st0" width="11.1" height="11.1"/>
		<rect x="233.3" y="55.6" class="st0" width="11.1" height="11.1"/>
		<rect x="233.3" y="11.1" class="st0" width="11.1" height="11.1"/>
		<rect x="233.3" y="44.4" class="st0" width="11.1" height="11.1"/>
		<rect x="266.7" y="44.4" class="st2" width="11.1" height="11.1"/>
		<rect x="277.8" y="55.6" class="st0" width="11.1" height="11.1"/>
		<rect x="266.7" y="55.6" class="st0" width="11.1" height="11.1"/>
		<rect x="266.7" y="66.7" class="st2" width="11.1" height="11.1"/>
		<rect x="277.8" y="44.4" class="st2" width="11.1" height="11.1"/>
		<rect x="255.6" y="33.3" class="st0" width="11.1" height="11.1"/>
		<rect x="266.7" y="33.3" class="st0" width="11.1" height="11.1"/>
		<rect x="266.7" y="77.8" class="st0" width="11.1" height="11.1"/>
		<rect x="255.6" y="44.4" class="st2" width="11.1" height="11.1"/>
		<rect x="277.8" y="33.3" class="st0" width="11.1" height="11.1"/>
		<rect x="255.6" y="55.6" class="st0" width="11.1" height="11.1"/>
		<rect x="244.4" y="66.7" class="st2" width="11.1" height="11.1"/>
		<rect x="244.4" y="55.6" class="st0" width="11.1" height="11.1"/>
		<rect x="255.6" y="66.7" class="st2" width="11.1" height="11.1"/>
		<rect x="244.4" y="44.4" class="st0" width="11.1" height="11.1"/>
		<rect x="277.8" y="22.2" class="st2" width="11.1" height="11.1"/>
		<rect x="255.6" y="22.2" class="st2" width="11.1" height="11.1"/>
		<rect x="244.4" y="33.3" class="st2" width="11.1" height="11.1"/>
		<rect x="266.7" y="22.2" class="st2" width="11.1" height="11.1"/>
		<rect x="244.4" y="22.2" class="st0" width="11.1" height="11.1"/>
		<rect x="311.1" y="44.4" class="st0" width="11.1" height="11.1"/>
		<rect x="255.6" y="88.9" class="st0" width="11.1" height="11.1"/>
		<rect x="288.9" y="88.9" class="st0" width="11.1" height="11.1"/>
		<rect x="233.3" y="88.9" class="st0" width="11.1" height="11.1"/>
		<rect x="277.8" y="88.9" class="st0" width="11.1" height="11.1"/>
		<rect x="266.7" y="88.9" class="st0" width="11.1" height="11.1"/>
		<rect x="244.4" y="88.9" class="st0" width="11.1" height="11.1"/>
		<rect x="222.2" y="66.7" class="st0" width="11.1" height="11.1"/>
		<rect x="222.2" y="55.6" class="st0" width="11.1" height="11.1"/>
		<rect x="222.2" y="77.8" class="st0" width="11.1" height="11.1"/>
		<rect x="222.2" y="88.9" class="st0" width="11.1" height="11.1"/>
		<rect x="311.1" class="st0" width="11.1" height="11.1"/>
		<rect x="311.1" y="22.2" class="st0" width="11.1" height="11.1"/>
		<rect x="300" y="88.9" class="st0" width="11.1" height="11.1"/>
		<rect x="311.1" y="33.3" class="st0" width="11.1" height="11.1"/>
		<rect x="222.2" y="44.4" class="st0" width="11.1" height="11.1"/>
		<rect x="311.1" y="11.1" class="st0" width="11.1" height="11.1"/>
		<rect x="311.1" y="77.8" class="st0" width="11.1" height="11.1"/>
		<rect x="311.1" y="88.9" class="st0" width="11.1" height="11.1"/>
		<rect x="311.1" y="66.7" class="st0" width="11.1" height="11.1"/>
		<rect x="311.1" y="55.6" class="st0" width="11.1" height="11.1"/>
		<rect x="300" y="66.7" class="st0" width="11.1" height="11.1"/>
		<rect x="300" y="44.4" class="st0" width="11.1" height="11.1"/>
		<rect x="300" y="22.2" class="st0" width="11.1" height="11.1"/>
		<rect x="300" y="33.3" class="st0" width="11.1" height="11.1"/>
		<rect x="300" y="11.1" class="st0" width="11.1" height="11.1"/>
		<rect x="288.9" y="77.8" class="st0" width="11.1" height="11.1"/>
		<rect x="300" class="st0" width="11.1" height="11.1"/>
		<rect x="300" y="77.8" class="st0" width="11.1" height="11.1"/>
		<rect x="300" y="55.6" class="st0" width="11.1" height="11.1"/>
		<rect x="277.8" y="77.8" class="st0" width="11.1" height="11.1"/>
		<rect x="222.2" y="11.1" class="st0" width="11.1" height="11.1"/>
		<rect x="222.2" y="33.3" class="st0" width="11.1" height="11.1"/>
		<rect x="233.3" class="st0" width="11.1" height="11.1"/>
		<rect x="222.2" class="st0" width="11.1" height="11.1"/>
		<rect x="222.2" y="22.2" class="st0" width="11.1" height="11.1"/>
		<rect x="244.4" class="st0" width="11.1" height="11.1"/>
		<rect x="266.7" class="st0" width="11.1" height="11.1"/>
		<rect x="288.9" class="st0" width="11.1" height="11.1"/>
		<rect x="277.8" class="st0" width="11.1" height="11.1"/>
		<rect x="255.6" class="st0" width="11.1" height="11.1"/>
	</g>
</g>
<g>
	<path d="M175.5-197.3h7.8c3.7,0,6.2,1.8,6.2,5.3c0,2.8-1.9,4.6-3.8,5.2c0.6,0.5,1,1.1,1.3,1.8c0.8,1.6,1.3,3.4,3,3.4
		c0.3,0,0.5,0,0.8-0.1l-0.4,3.4c-0.6,0.1-1.3,0.2-1.9,0.3c-2.3,0-3.6-0.9-4.9-3.9c-0.5-1.4-1.3-3.7-2.4-3.7h-1.1v7.5h-4.7V-197.3z
		 M180.2-193.9v4.7h1.7c1.4,0,2.9-0.4,2.9-2.5c0-1.7-1.1-2.2-2.4-2.2L180.2-193.9L180.2-193.9z"/>
	<path d="M195.9-197.3h4.8l6.4,19h-4.8l-1.2-3.6h-6.4l-1.2,3.6h-4.1L195.9-197.3z M195.9-185.4h4.1l-1.3-4c-0.3-1.1-0.5-2.2-0.6-3.3
		H198c-0.2,1.1-0.4,2.2-0.7,3.2L195.9-185.4z"/>
	<path d="M207.3-197.3h5.1l5,9.5c0.4,0.8,1,2.3,1.4,3.4h0.1c-0.1-1.1-0.2-2.6-0.2-3.7v-9.1h3.9v19h-4.9l-5.2-9.4c-0.5-1-1-2-1.4-3.1
		H211c0.1,1.1,0.2,2.3,0.2,3.4v9.1h-3.9V-197.3z"/>
	<path d="M223.6-187.9c0-6.9,3.4-9.7,8.7-9.7c5.6,0,7.8,3,7.2,7.2l-4.4,0.4c0.5-3-0.7-4.2-2.8-4.2c-2.1,0-3.7,1.5-3.7,6.4
		c0,5.2,1.8,6.5,3.9,6.5c1.9,0,3.5-1.2,3.2-3.7l4.1,0.4c0.3,3.9-2.5,6.7-7.6,6.7C226.9-177.9,223.6-181,223.6-187.9"/>
	<polygon points="241.2,-197.3 245.9,-197.3 245.9,-190.1 251.7,-190.1 251.7,-197.3 256.4,-197.3 256.4,-178.3 251.7,-178.3 
		251.7,-186.3 245.9,-186.3 245.9,-178.3 241.2,-178.3 	"/>
	<polygon points="257.7,-197.3 270.3,-197.3 270.3,-193.8 262.4,-193.8 262.4,-189.7 269.1,-189.7 269.1,-186.2 262.4,-186.2 
		262.4,-181.8 270.6,-181.8 270.6,-178.3 257.7,-178.3 	"/>
	<path d="M271.5-197.3h7.8c3.7,0,6.2,1.8,6.2,5.3c0,2.8-1.9,4.6-3.8,5.2c0.6,0.5,1,1.1,1.3,1.8c0.8,1.6,1.3,3.4,3,3.4
		c0.3,0,0.5,0,0.8-0.1l-0.4,3.4c-0.6,0.1-1.3,0.2-1.9,0.3c-2.3,0-3.6-0.9-4.9-3.9c-0.6-1.4-1.3-3.7-2.4-3.7h-1.1v7.5h-4.7V-197.3z
		 M276.2-193.9v4.7h1.7c1.4,0,2.9-0.4,2.9-2.5c0-1.7-1.1-2.2-2.4-2.2L276.2-193.9L276.2-193.9z"/>
	<path d="M292-197h4.7v15.5h7.9v3.5H292V-197z"/>
	<path d="M309.9-197h4.8l6.4,19h-4.8l-1.2-3.6h-6.4l-1.2,3.6h-4.1L309.9-197z M309.9-185.1h4.1l-1.3-4c-0.3-1.1-0.5-2.2-0.7-3.3
		h-0.1c-0.2,1.1-0.4,2.2-0.7,3.2L309.9-185.1z"/>
	<path d="M321.8-197h8.1c3.4,0,5.9,1.1,5.9,4.6c0,2.6-1.4,3.6-3.9,4.2v0.1c2.8,0.3,4.5,1.8,4.5,4.7c0,3.7-2.7,5.5-6.3,5.5h-8.4
		L321.8-197L321.8-197z M328.5-189.7c1.2,0,2.5-0.3,2.5-2s-1.1-1.9-2.2-1.9h-2.4v3.9H328.5z M329-181.4c1.4,0,2.7-0.7,2.7-2.6
		c0-1.6-1.2-2.3-2.7-2.3h-2.5v4.9H329z"/>
	<path d="M341.2-184.3c-0.3,1.5,0.3,3.3,3.2,3.3c2,0,2.7-0.8,2.7-1.8c0-1.6-1.6-2-3.4-2.7c-2.8-1-6.2-2.3-6.2-6.3
		c0-3.6,2.7-5.7,7.4-5.6c5.7,0.1,7.3,3.5,6.7,6.4l-4.3,0.4c0.3-2.2-0.5-3.4-2.7-3.4c-1.5,0-2.3,0.6-2.3,1.8c0,1.6,1.5,2.1,3.4,2.7
		c2.9,1,6.3,2.1,6.3,6.1c0,3.4-2.5,5.9-7.5,5.9c-4.7,0-7.8-2.1-7.2-6.2L341.2-184.3z"/>
</g>
<g>
	<path class="st0" d="M52.2,127.6h2l2,13.3h-2l-0.5-4h-5.2l-2.3,4h-1.8L52.2,127.6z M53.5,135.5l-0.8-5.9l-3.4,5.9H53.5z"/>
	<path class="st0" d="M65,127.6h6c1.2,0,2.1,0.3,2.6,1c0.6,0.7,0.7,1.6,0.5,2.8c-0.2,1-0.7,1.9-1.5,2.7c-0.8,0.8-1.9,1.2-3.2,1.2
		h-4.2l-1.2,5.6h-1.8L65,127.6z M71.6,129.5c-0.4-0.2-0.9-0.3-1.6-0.3h-3.6l-1,4.6h3.6c0.8,0,1.5-0.2,2.1-0.5c0.6-0.3,1-0.9,1.1-1.8
		C72.5,130.5,72.3,129.8,71.6,129.5z"/>
	<path class="st0" d="M76.2,131.2h1.5l-0.4,1.7c0.2-0.3,0.6-0.7,1.2-1.2c0.6-0.5,1.2-0.7,1.9-0.7c0,0,0.1,0,0.2,0s0.2,0,0.4,0
		l-0.4,1.7c-0.1,0-0.2,0-0.3,0c-0.1,0-0.2,0-0.3,0c-0.8,0-1.5,0.3-2.1,0.8c-0.6,0.5-0.9,1.1-1.1,1.8l-1.2,5.6h-1.6L76.2,131.2z"/>
	<path class="st0" d="M89.7,135.9c-0.3,1.6-1,2.8-2,3.9c-1,1-2.3,1.5-3.9,1.5c-1.3,0-2.3-0.5-2.9-1.4c-0.6-0.9-0.7-2.1-0.4-3.6
		c0.3-1.6,1-2.9,2.1-3.9c1-1,2.2-1.4,3.6-1.4c1.2,0,2.2,0.4,2.9,1.2C89.9,133,90.1,134.3,89.7,135.9z M88,135.9
		c0.2-0.9,0.2-1.6,0-2.2c-0.3-0.9-1-1.3-2.1-1.3c-1,0-1.8,0.4-2.4,1.1c-0.6,0.8-1,1.7-1.3,2.7c-0.2,1-0.2,1.9,0.1,2.6s0.9,1,1.9,1
		c1.1,0,1.9-0.4,2.5-1.2C87.4,137.8,87.8,136.9,88,135.9z"/>
	<path class="st0" d="M88.5,143.4c0.7,0,1.2-0.1,1.3-0.2c0.2-0.1,0.3-0.4,0.4-1l2.3-10.9h1.6l-2.3,11.1c-0.2,0.7-0.4,1.2-0.7,1.6
		c-0.5,0.6-1.3,0.9-2.3,0.9c-0.1,0-0.2,0-0.2,0s-0.2,0-0.4,0L88.5,143.4z M94.6,129.5H93l0.4-1.9H95L94.6,129.5z"/>
	<path class="st0" d="M103.9,132.8c0.2,0.5,0.3,1.1,0.3,1.7c0,0.4-0.1,1.2-0.3,2.1h-7.1c-0.2,1-0.1,1.8,0.2,2.4
		c0.3,0.6,0.9,0.9,1.8,0.9c0.8,0,1.6-0.3,2.2-0.8c0.4-0.3,0.6-0.7,0.9-1.1h1.6c-0.1,0.4-0.3,0.8-0.7,1.2c-0.3,0.4-0.7,0.8-1,1.1
		c-0.6,0.5-1.3,0.8-2,1c-0.4,0.1-0.9,0.1-1.4,0.1c-1.2,0-2.1-0.4-2.8-1.3c-0.7-0.9-0.8-2.1-0.5-3.7c0.3-1.6,1-2.8,2.1-3.8
		c1-1,2.3-1.5,3.6-1.5c0.7,0,1.3,0.2,1.9,0.5C103.3,131.8,103.7,132.3,103.9,132.8z M102.5,135.3c0.1-0.7,0.1-1.3-0.1-1.7
		c-0.3-0.8-0.9-1.2-2-1.2c-0.7,0-1.4,0.3-2.1,0.8c-0.6,0.5-1,1.2-1.2,2.1H102.5z"/>
	<path class="st0" d="M114,134.5h-1.6c0-0.6-0.1-1.1-0.3-1.5c-0.3-0.4-0.8-0.6-1.5-0.6c-1,0-1.9,0.5-2.5,1.5
		c-0.4,0.7-0.7,1.5-0.9,2.4c-0.2,1-0.2,1.8,0.1,2.4c0.3,0.7,0.8,1,1.7,1c0.7,0,1.3-0.2,1.7-0.6c0.5-0.4,0.9-1,1.2-1.7h1.6
		c-0.5,1.3-1.1,2.2-2,2.8c-0.8,0.6-1.8,0.9-3,0.9c-1.3,0-2.2-0.5-2.7-1.4c-0.6-0.9-0.7-2.1-0.4-3.5c0.4-1.7,1.1-3,2.1-4
		s2.2-1.4,3.5-1.4c1.1,0,1.9,0.3,2.5,0.8C113.9,132.3,114.1,133.2,114,134.5z"/>
	<path class="st0" d="M117.2,128.5h1.6l-0.6,2.7h1.5l-0.3,1.3H118l-1.3,6.3c-0.1,0.3,0,0.6,0.2,0.7c0.1,0.1,0.3,0.1,0.6,0.1
		c0.1,0,0.2,0,0.3,0c0.1,0,0.2,0,0.3,0l-0.3,1.3c-0.2,0.1-0.4,0.1-0.6,0.1c-0.2,0-0.4,0-0.7,0c-0.8,0-1.2-0.2-1.4-0.6
		c-0.2-0.4-0.2-0.9-0.1-1.5l1.4-6.4H115l0.3-1.3h1.3L117.2,128.5z"/>
	<path class="st0" d="M127.2,127.6h1.6l-1,4.8c0.5-0.5,0.9-0.8,1.5-1.1c0.5-0.2,1.1-0.4,1.7-0.4c1.2,0,2.1,0.4,2.7,1.2
		c0.6,0.8,0.7,2,0.3,3.7c-0.3,1.5-1,2.8-1.9,3.8s-2.1,1.5-3.4,1.5c-0.7,0-1.3-0.2-1.7-0.5c-0.3-0.2-0.5-0.5-0.7-1l-0.3,1.2h-1.5
		L127.2,127.6z M132.3,136c0.2-1,0.2-1.9-0.1-2.5c-0.3-0.7-0.9-1-1.7-1c-0.7,0-1.4,0.3-2.1,0.8c-0.7,0.5-1.1,1.5-1.4,2.7
		c-0.2,0.9-0.2,1.6-0.1,2.2c0.2,1.1,0.9,1.6,2.1,1.6c0.9,0,1.6-0.3,2.2-1S132.1,137.1,132.3,136z"/>
	<path class="st0" d="M142.9,131.2h1.8c-0.4,0.6-1.2,2-2.4,4.2c-0.9,1.7-1.7,3-2.3,4.1c-1.5,2.5-2.5,4-3,4.5
		c-0.5,0.5-1.2,0.8-2.2,0.8c-0.2,0-0.4,0-0.5,0c-0.1,0-0.3-0.1-0.4-0.1l0.3-1.5c0.3,0.1,0.5,0.1,0.6,0.1c0.1,0,0.2,0,0.3,0
		c0.3,0,0.5,0,0.7-0.1c0.2-0.1,0.3-0.2,0.4-0.4c0,0,0.2-0.3,0.5-0.7c0.3-0.4,0.5-0.8,0.6-1l-1.5-10h1.8l0.9,7.9L142.9,131.2z"/>
	<path class="st0" d="M149.6,123.1h7.3c3.5,0,5.8,1.7,5.8,5c0,2.7-1.8,4.3-3.6,4.8c0.5,0.4,0.9,1.1,1.2,1.7c0.7,1.5,1.2,3.2,2.8,3.2
		c0.4,0,0.7-0.1,0.7-0.1l-0.3,3.1c0,0-1,0.2-1.8,0.2c-2.1,0-3.3-0.8-4.6-3.6c-0.5-1.3-1.3-3.5-2.2-3.5h-1v7.1h-4.4V123.1z
		 M154,126.3v4.4h1.6c1.3,0,2.7-0.4,2.7-2.3c0-1.6-1-2.1-2.2-2.1H154z"/>
	<path class="st0" d="M169.6,123.1h4.5l6,17.8h-4.5l-1.1-3.4h-6l-1.1,3.4h-3.9L169.6,123.1z M169.6,134.3h3.8l-1.2-3.8
		c-0.4-1.3-0.6-3.1-0.6-3.1h-0.1c0,0-0.3,1.8-0.7,3L169.6,134.3z"/>
	<path class="st0" d="M181.1,123.1h4.7l4.7,8.9c0.4,0.8,0.9,2.1,1.3,3.2h0.1c-0.1-1-0.2-2.4-0.2-3.5v-8.6h3.6v17.8h-4.6l-4.9-8.8
		c-0.5-0.8-0.9-2-1.3-2.9h-0.1c0.1,1,0.2,2.2,0.2,3.2v8.6h-3.6V123.1z"/>
	<path class="st0" d="M197.1,131.9c0-6.5,3.2-9.1,8.1-9.1c5.2,0,7.3,2.9,6.7,6.7l-4.1,0.4c0.4-2.8-0.7-4-2.7-4c-1.9,0-3.5,1.4-3.5,6
		c0,4.9,1.7,6.1,3.6,6.1c1.8,0,3.3-1.1,3-3.5l3.9,0.4c0.3,3.6-2.3,6.3-7.1,6.3C200.2,141.2,197.1,138.4,197.1,131.9z"/>
	<path class="st0" d="M213.8,123.1h4.4v6.7h5.4v-6.7h4.4v17.8h-4.4v-7.6h-5.4v7.6h-4.4V123.1z"/>
	<path class="st0" d="M230.6,123.1h11.8v3.3h-7.4v3.8h6.2v3.3h-6.2v4.2h7.7v3.3h-12.1V123.1z"/>
	<path class="st0" d="M244.4,123.1h7.3c3.5,0,5.8,1.7,5.8,5c0,2.7-1.8,4.3-3.6,4.8c0.5,0.4,0.9,1.1,1.2,1.7c0.7,1.5,1.2,3.2,2.8,3.2
		c0.4,0,0.7-0.1,0.7-0.1l-0.3,3.1c0,0-1,0.2-1.8,0.2c-2.1,0-3.3-0.8-4.6-3.6c-0.5-1.3-1.3-3.5-2.2-3.5h-1v7.1h-4.4V123.1z
		 M248.8,126.3v4.4h1.6c1.3,0,2.8-0.4,2.8-2.3c0-1.6-1-2.1-2.2-2.1H248.8z"/>
	<path class="st0" d="M264.2,123.1h4.4v14.6h7.4v3.3h-11.8V123.1z"/>
	<path class="st0" d="M281.6,123.1h4.5l6,17.8h-4.5l-1.1-3.4h-6l-1.1,3.4h-3.9L281.6,123.1z M281.6,134.3h3.8l-1.2-3.8
		c-0.4-1.3-0.6-3.1-0.6-3.1h-0.1c0,0-0.3,1.8-0.7,3L281.6,134.3z"/>
	<path class="st0" d="M293.1,123.1h7.6c3.1,0,5.5,1.1,5.5,4.3c0,2.5-1.3,3.4-3.6,3.9v0.1c2.6,0.3,4.2,1.7,4.2,4.4
		c0,3.5-2.5,5.2-5.9,5.2h-7.9V123.1z M299.4,129.9c1.2,0,2.3-0.3,2.3-1.9c0-1.6-1-1.8-2.1-1.8h-2.2v3.6H299.4z M299.8,137.7
		c1.3,0,2.5-0.7,2.5-2.4c0-1.5-1.2-2.2-2.5-2.2h-2.4v4.6H299.8z"/>
	<path class="st0" d="M311.5,135.1c-0.3,1.4,0.2,3.1,3,3.1c1.9,0,2.5-0.7,2.5-1.7c0-1.5-1.5-1.9-3.2-2.5c-2.6-0.9-5.8-2.2-5.8-5.9
		c0-3.3,2.6-5.4,6.9-5.3c5.3,0.1,6.8,3.3,6.3,6l-4,0.4c0.3-2.1-0.5-3.2-2.6-3.2c-1.4,0-2.2,0.5-2.2,1.6c0,1.5,1.4,1.9,3.2,2.5
		c2.7,0.9,5.9,2,5.9,5.7c0,3.2-2.4,5.5-7,5.5c-4.4,0-7.4-2-6.7-5.8L311.5,135.1z"/>
</g>
<rect x="122.4" y="-221.7" style="fill:none;" width="322" height="15"/>
<text transform="matrix(1 0 0 1 233.1982 -207.426)"><tspan x="0" y="0" class="st0" style="font-family:'Helvetica-Oblique'; font-size:14px;">A Project by </tspan><tspan x="79.4" y="0" class="st0" style="font-family:'Tenso-Bold'; font-size:20px;">Rancher Labs</tspan></text>
<rect x="122.4" y="-149.5" style="fill:none;" width="322" height="15"/>
<text transform="matrix(1 0 0 1 233.1982 -135.2059)"><tspan x="0" y="0" class="st0" style="font-family:'Helvetica-Oblique'; font-size:14px;">A Project by </tspan><tspan x="79.4" y="0" class="st0" style="font-family:'Tenso-Bold'; font-size:20px;">Rancher Labs</tspan></text>
<rect x="122.4" y="-248.3" style="fill:none;" width="322" height="15"/>
<text transform="matrix(1 0 0 1 122.3584 -239.799)" style="font-family:'MyriadPro-Regular'; font-size:12px;">A Rancher Labs Project</text>
</svg>
