<svg xmlns="http://www.w3.org/2000/svg" width="112.851" height="52.946" viewBox="0 0 112.851 52.946">
  <g id="Group_1" data-name="Group 1" transform="translate(-1123.785 -76.183)">
    <g id="Group_27" data-name="Group 27">
      <path id="Path_22486" data-name="Path 22486" d="M1123.785,76.183h9.844v27.955l12.638-14.455h12.459l-13.734,14.276,14.265,23.869h-12.193l-9.285-16.373-4.15,4.314v12.059h-9.844Z" fill="#1f2326"/>
      <path id="Path_22487" data-name="Path 22487" d="M1171,112.183a11.5,11.5,0,0,0,.982,5.063q1.824,3.691,6.629,3.691a7.334,7.334,0,0,0,5.139-2.021,7.522,7.522,0,0,0,2.191-5.819q0-5.026-4.064-6.714a20.58,20.58,0,0,0-7.291-.95V98.261q4.87-.069,6.8-.949,3.328-1.476,3.329-5.976a6.686,6.686,0,0,0-1.7-4.746,6.213,6.213,0,0,0-4.786-1.829,6.054,6.054,0,0,0-5.207,2.25,9.566,9.566,0,0,0-1.6,6.012h-9.351a25.174,25.174,0,0,1,1.3-7.207,16.2,16.2,0,0,1,3.863-5.519,13.436,13.436,0,0,1,4.671-2.743,20.214,20.214,0,0,1,6.637-.949q7.3,0,11.783,3.78a12.594,12.594,0,0,1,4.476,10.142,11.212,11.212,0,0,1-2.671,7.594,9.127,9.127,0,0,1-3.516,2.637q1.371,0,3.937,2.355,3.832,3.552,3.832,9.7a16.35,16.35,0,0,1-4.477,11.373q-4.477,4.9-13.259,4.9-10.816,0-15.031-7.066a20.989,20.989,0,0,1-2.459-9.844Z" fill="#1f2326"/>
      <path id="Path_22488" data-name="Path 22488" d="M1211.746,115.593a6.673,6.673,0,0,0,1.379,3.8q1.872,2,6.922,2a10.6,10.6,0,0,0,4.716-.879,2.945,2.945,0,0,0,.34-5.2q-1.409-.877-10.482-3.023-6.531-1.617-9.2-4.043-2.673-2.391-2.672-6.891a11.944,11.944,0,0,1,4.175-9.123q4.176-3.814,11.75-3.814,7.188,0,11.713,2.865t5.2,9.9h-10.02a5.923,5.923,0,0,0-1.092-3.058q-1.657-2.039-5.64-2.039-3.281,0-4.672,1.019a2.935,2.935,0,0,0-1.393,2.391,2.615,2.615,0,0,0,1.482,2.5q1.481.81,10.462,2.777,5.985,1.407,8.974,4.254a9.657,9.657,0,0,1,2.953,7.207,11.634,11.634,0,0,1-4.244,9.3q-4.245,3.6-13.122,3.6-9.054,0-13.368-3.815a12.4,12.4,0,0,1-4.316-9.721Z" fill="#1f2326"/>
    </g>
    <circle id="Ellipse_19" data-name="Ellipse 19" cx="2.218" cy="2.218" r="2.218" transform="translate(1168.295 100.335)" fill="#78c9cf"/>
    <circle id="Ellipse_20" data-name="Ellipse 20" cx="2.218" cy="2.218" r="2.218" transform="translate(1163.86 105.538)" fill="#78c9cf"/>
    <circle id="Ellipse_21" data-name="Ellipse 21" cx="2.218" cy="2.218" r="2.218" transform="translate(1163.86 95.133)" fill="#78c9cf"/>
  </g>
</svg>
