<?xml version="1.0" encoding="utf-8"?>
<!-- Generator: Adobe Illustrator 23.0.1, SVG Export Plug-In . SVG Version: 6.00 Build 0)  -->
<svg version="1.1" id="Layer_1" xmlns="http://www.w3.org/2000/svg" xmlns:xlink="http://www.w3.org/1999/xlink" x="0px" y="0px"
	 viewBox="0 0 34.5618668 15" style="enable-background:new 0 0 34.5618668 15;" xml:space="preserve">
<style type="text/css">
	.st0{fill:#1F2326;}
	.st1{fill:#FDFEFC;}
</style>
<g>
	<g>
		<path class="st0" d="M23.7948856,9.3292818l-0.6671543,0.055582c0.4447575,0.7227354-0.5559559,3.224535-2.6129971,2.8353586
			c0.277977,1.3898888-0.8895321,2.2238216-2.2238216,1.8902626c-1.1119099-0.2779779-1.7790642-0.3891754-3.7804899-0.055582
			c-2.4462004,0.4447575-5.2815762,1.2231083-8.2281332-0.5003738c-0.2779779-0.1667795-0.5559554,0-0.6115546,0.1667805
			C5.5039554,14.0548687,5.6151361,15,4.836802,15H1.890245C0.8339331,15,0,13.4433317,0,8.4953146
			c0-5.1147966,0.0555989-7.1162224,2.2238216-7.1718383c2.0570416,0,2.6685791,0,2.6685791,0
			c0.6671534,0,0.7783341,0.4447576,0.8895321,0.7227353C5.837532,2.2129915,6.1155095,2.2686074,6.2822895,2.2129915
			c0.2779775-0.1111977,2.890975-1.2786906,5.1703787-1.5010864c2.1126232-0.2223957,2.946557-0.8895151,4.3364449-0.6671533
			c1.6678667,0.2779777,7.1162233,0.055582,8.728507,0.055582c1.6122665,0,4.1696663,0.5003734,7.560997,0.3891756
			c3.2245331-0.055582,3.2801323,3.6692922,0.3335762,3.5025125c-2.2794209-0.1111979-2.3906002,0.1667798-3.1689529,0.0555818
			c-1.3898869-0.1667798-2.9465561,0-4.0028858,0.055582c-0.5003548,0.055582-1.0563107-0.1111979-2.5017986,0.055582
			c0.7783337,0.1667795,0.8339329,0.3891754,1.9458447,0.9451308C26.2966843,5.9935493,25.3515701,9.2180843,23.7948856,9.3292818z"
			/>
		<path class="st1" d="M4.2252645,7.9949756c-0.0555987,2.0570416,0.3335767,5.5595536,0.4447575,5.8931136
			c0.1111979,0.2779779-0.1111979,0.5003738-0.5559554,0.4447575c-0.3335767,0-1.890245,0-1.890245,0
			c-0.7227353,0-1.5566683-0.7227354-1.5566683-6.1710911C0.7227522,2.4910033,0.945131,1.7682679,2.6129973,1.7682679
			l2.0570419,0.055582c0.1111979,0,0.2223787,0.1111978,0.2779775,0.2223957
			C5.0591979,2.3798392,4.3364453,2.8245969,4.2252645,7.9949756z"/>
		<path class="st1" d="M9.0620661,8.550931C8.9508686,8.6621284,8.9508686,8.7733269,9.0064678,8.88449
			c0.1667795,0.3891764,0.6115541,0.1111984,0.9451303,0.055582c0.2779779,0,1.7234659-0.277977,2.2238216,0.055582
			c0.5559559,0.33356,1.5566683,1.0007133,1.9458447,2.4462175c0.0555983,0.2779779,0.5003557,1.0563288,1.1675091,1.2786903
			c0.5003567,0.1667805,0.3891764,0.6671534,0,0.6671534c-1.1119108,0.1111984-1.445487,0.5559559-4.8924007,0.5559559
			c-2.7241778-0.1667795-5.3371749-0.6671534-5.5039549-4.3364458C4.8368187,7.6057997,4.9480166,4.7704067,5.2259946,3.7696939
			c0.2779775-1.0563288,1.1119108-1.0007129,1.890245-1.3898885c3.0577545-1.3343066,5.1147966-1.2231088,6.7826624-1.6122843
			c0.6671534-0.1667798,1.16751-0.3891756,2.0014429,0.1667798c1.8346462,1.2786906,4.0028858,1.7234483,4.5032425,2.0570419
			c0.3891754,0.2223957,0.4447575,0.3335595,0.5559559,0.5003734c0.1111984,0.2223957,0.5003567,0.2223957,0.7783337,0.5003734
			c0.2223797,0.1667798,0.277977,0.2223957,0.5559559,0.3335598c-0.2779789,0.3891754-0.5559559-0.055582-1.0007133,0.8339329
			c-0.1111984,0.16678,0,0.5559559,0.0555992,0.6671534c0.2223778,0.33356,0.9451313,0.3891759,1.2231083,0.4447579
			c0.2223797,0.0555816,0.5003567,0.1111975,0.7783337,0.1111975c0.7227364,0.1111979,0.8895321-0.611537,0.9451313-0.3335595
			c0.1111984,1.2786908-1.6122665,1.0007129-2.1682224,0.9451308c-0.5559559-0.0555816-1.0563126-0.3335595-1.6122665-0.5003734
			c-0.2223797-0.1667795-1.5566692-0.2223954-1.5566692-1.1674929c0-0.1667795,0-0.5003734-0.3891754-0.3335595
			c-0.3335762,0.1111979-1.7790642,0.1111979-2.001442-0.3335595c-0.1111984-0.16678-0.2223797-0.33356-0.3891773-0.3891759
			c-0.2223778-0.1111979-0.3335762,0.055582-0.277977,0.2779779c0.0555992,0.2779775,0,0.7227349-0.3891754,0.8339329
			s-0.5559549,0.1111979-0.8339329-0.055582c-0.2779779-0.1667795-0.8339338-0.5003734-1.0563126-0.5003734
			c-0.2223787,0.055582-0.3335762,0.2223959,0.1111984,0.4447575c0.4447575,0.2223959,0.9451313,0.8895154,0.2223787,1.6678667
			c-1.0563116,1.1674929-0.7227354,1.2231083-4.4476433,1.3898888C9.2288637,8.3841505,9.1176653,8.4397669,9.0620661,8.550931z"/>
		<path class="st1" d="M15.1775761,8.6065464c-0.5003567-0.611537-0.8895321-0.8339329-0.3891754-1.4454703
			c0.0555992-0.1111979,0.2223787-0.1111979,0.6671534,0c0.2223787,0.055582,1.0563116,1.0563293,0.3335762,1.7234483
			C15.6223507,8.9401064,15.455554,8.9957218,15.1775761,8.6065464z"/>
		<path class="st1" d="M14.3992414,10.5523911c-0.277977,0.1111975-0.7783337-1.2786913-0.7783337-1.3898888
			c0.0555992-0.1111984,0.0555992-0.2779779,0.6671534-0.33356c0.2779779,0,0.7783337,0.5559559,0.7227354,1.1119108
			C14.9551973,10.3856106,14.4548407,10.5523911,14.3992414,10.5523911z"/>
		<path class="st1" d="M16.8454418,7.0498781c-0.277977-0.2779775-0.8339329-0.8339329-0.6671524-1.1119108
			c0.2223778-0.3335595,0.4447575-0.5003734,1.0563107-0.2779775c0.3891773,0.1667795,1.167511,0.8339329,0.3335781,1.6122842
			C17.3458157,7.3834381,17.2346172,7.4390202,16.8454418,7.0498781z"/>
		<path class="st1" d="M20.0143948,12.1646414c0.4447575,1.7790632-1.5566673,1.6678658-2.3350201,1.1674919
			c-1.2786903-0.7783508-2.3906012-0.9451303-2.8353748-1.4454699c-0.2223797-0.2779779-0.6115551-1.0007133-0.2223797-1.0563288
			c0.3335772-0.055582,0.6115551-0.2779779,0.7783346-0.4447575c0.0555992-0.055582-0.0555992-0.5559559,0.0555992-0.5559559
			c0.0555983,0-0.0555992,0.5559559,1.16751,1.1119108c0.555954,0.2223959,1.6678658,0.7227354,2.0570412,0.7783508
			c0.3335762,0.055582,0.6115551,0.2223959,1.1675091,0.2779779C19.9587955,12.1090593,19.9587955,12.1646414,20.0143948,12.1646414
			z"/>
		<path class="st1" d="M22.4049969,9.3292818c-1.3342896-0.055582-1.8902454,0-2.2238216,0
			c-1.6678677,0.1667795-2.3906021-0.4447575-2.7797775-0.9451313c-0.3335762-0.333559-0.4447575-0.611537-0.7227345-0.7783508
			c-0.2223797-0.1667795-0.4447575-0.5559554-0.2779789,0.055582c0.0555992,0.2779779,0.2779789,0.4447575,0.1111984,0.9451313
			c-0.1667805,0.277977-0.2223797,0.4447575-0.7227354,0.7783508c-0.0555992,0-0.1111975,0.055582-0.0555992,0.055582
			c0.1667805,0.1111975,0.2779779,1.0007133,1.7234659,1.3898888c1.8346462,0.5003729,2.6685791,0.9451303,3.0577545,1.0007124
			c0.0555992,0,0.1667805,0,0.277977,0c0.5559559-0.055582,0.7783356-0.1111975,0.9451313-0.277977
			c0.1667805-0.1667805,1.1119118-0.9451313,0.8895321-1.9458447C22.5161934,9.4404802,22.4605961,9.3292818,22.4049969,9.3292818z"
			/>
		<path class="st1" d="M24.9067955,6.2159452c0.1111984,0,0.3335762,2.0014257-1.0563107,2.5017996
			c-0.6671543,0.277977-1.0563126,0.055582-1.7234669,0.1111975c-1.1675091-0.055582-2.1126232,0-2.6129971,0
			c-0.7227345,0-1.2786903-0.1667795-1.6122665-0.5559549c-0.1667805-0.2223959-0.6115551-0.5559559-0.3335762-0.6671538
			c0.277977-0.1111975,0.4447575-0.1667795,0.7227345-0.611537c0.3335762-0.6115375-0.1111984-1.0007133,0.277977-0.8339334
			c0.3335781,0.16678,0.3335781,0.16678,0.6671543,0.3891754c1.3342896,0.9451313,5.5595531,1.9458437,5.4483566-0.1667795
			C24.6844177,6.2715273,24.8512135,6.1047473,24.9067955,6.2159452z"/>
		<path class="st1" d="M22.7385731,4.7704406c0.2223797,0,0.4447575,0.16678,0.6115551,0.2223959
			c0.277977,0.1111979,1.2231083,0.2779775,0.7783337,0.8339329c-0.4447575,0.5559559-1.723465,0.055582-2.1682224-0.0555816
			c-0.1667805-0.055582-0.2779789-0.2223959-0.2779789-0.3891759C21.6822605,5.1596165,21.7934589,4.7704406,22.7385731,4.7704406z"
			/>
		<path class="st1" d="M29.8548126,1.1011486c-1.0563126,0-3.4469299-0.5559555-4.7256203-0.2779778
			c-1.5566692-0.2779777-4.2252655,0-5.1147976-0.0555819c-0.7783337,0-2.4461994-0.1667799-3.6137104,0
			c0.3335762,0.1111978,1.5566692,1.0563288,3.4469299,1.5566685c0.6671543,0.1667798,1.167511,0.4447575,1.7234669,1.1674926
			c1.3342896,0.2223959,3.2801323,0.3335598,3.3913307,0.1111979c0.0555992-0.1111979,0.0555992-0.2223957,0.3335762-0.1667798
			c0.2223797,0.0555818,0.1111984,0.1111977,0.5003567,0.1111977c2.1126232,0.055582,3.224535,0,3.224535,0
			c0.4447575-0.0555818,0.3335762-0.2223957,0.5003567-0.2223957c0.1667786-0.055582,0.0555992,0.1111979,0.555954,0.1667798
			c0.2779789,0,0.9451313,0.1111979,2.7797775,0.1111979c1.6678658,0.055582,2.0570412-2.4462175-0.7783356-2.5573814
			C30.0771904,0.9899507,30.1327896,1.1567305,29.8548126,1.1011486z"/>
	</g>
</g>
</svg>
