<?xml version="1.0" encoding="utf-8"?>
<!-- Generator: Adobe Illustrator 23.0.1, SVG Export Plug-In . SVG Version: 6.00 Build 0)  -->
<svg version="1.1" id="Layer_1" xmlns="http://www.w3.org/2000/svg" xmlns:xlink="http://www.w3.org/1999/xlink" x="0px" y="0px"
	 viewBox="0 0 350 295" style="enable-background:new 0 0 350 295;" xml:space="preserve">
<style type="text/css">
	.st0{fill:#FFFFFF;}
	.st1{fill:#1F2326;}
</style>
<rect class="st0" width="350" height="295"/>
<path class="st1" d="M15.6119995,250.9515991c-5.7650146,0-10.946228-0.807251-15.6119995-2.3291016V295h43.9763794
	c18.3074341-3.8615112,33.4876709-11.4571533,45.4978027-22.8364258
	c18.1794434-17.2241211,27.2719116-38.1012573,27.2719116-62.6306152c0-16.3532104-3.6414795-31.1645508-10.9076538-44.4345703
	c-7.2717896-13.2703247-18.1179199-23.9265137-32.5217285-31.968689
	c14.0743408-8.0427246,23.2226562-17.5259399,27.4448853-28.4505005c4.22229-10.9243164,6.3334961-21.1449585,6.3334961-30.6619263
	c0-21.1784668-7.9978027-39.2404785-23.9821167-54.1860962C72.536377,9.9419556,59.0582275,3.3457642,42.7175293,0H0v46.1200562
	c4.5352783-1.6402588,9.7045288-2.4631348,15.5114746-2.4631348c11.6895142,0,20.7316895,3.2506714,27.1154175,9.75177
	c6.383728,6.5008545,9.5784302,15.5150146,9.5784302,27.0426636c0,10.5892334-3.1947021,19.2348022-9.5784302,25.9369507
	s-15.4259033,10.0531006-27.1154175,10.0531006c-5.8069458,0-10.9761963-0.8483276-15.5114746-2.5390015v48.7153931
	c4.687439-1.5337524,9.8717041-2.3449097,15.6119995-2.3449097c12.867981,0,23.088623,3.8535156,30.6619263,11.5609131
	c7.567749,7.7073364,11.3600464,19.0004883,11.3600464,33.8790894c0,14.3422241-3.7196655,25.4675903-11.1589966,33.3759766
	C39.0356445,246.9975586,28.7479858,250.9515991,15.6119995,250.9515991z"/>
<path class="st1" d="M132.6119995,250.9515991c-5.7650146,0-10.946228-0.807251-15.6119995-2.3291016V295h43.9763794
	c18.3074341-3.8615112,33.4876709-11.4571533,45.4978027-22.8364258
	c18.1794434-17.2241211,27.2719116-38.1012573,27.2719116-62.6306152c0-16.3532104-3.6414795-31.1645508-10.9076538-44.4345703
	c-7.2717896-13.2703247-18.1179199-23.9265137-32.5217285-31.968689
	c14.0743408-8.0427246,23.2226562-17.5259399,27.4448853-28.4505005c4.22229-10.9243164,6.3334961-21.1449585,6.3334961-30.6619263
	c0-21.1784668-7.9978027-39.2404785-23.9821167-54.1860962C189.536377,9.9419556,176.0582275,3.3457642,159.7175293,0H117
	v46.1200562c4.5352783-1.6402588,9.7045288-2.4631348,15.5114746-2.4631348c11.6895142,0,20.7316895,3.2506714,27.1154175,9.75177
	c6.383728,6.5008545,9.5784302,15.5150146,9.5784302,27.0426636c0,10.5892334-3.1947021,19.2348022-9.5784302,25.9369507
	s-15.4259033,10.0531006-27.1154175,10.0531006c-5.8069458,0-10.9761963-0.8483276-15.5114746-2.5390015v48.7153931
	c4.687439-1.5337524,9.8717041-2.3449097,15.6119995-2.3449097c12.867981,0,23.088623,3.8535156,30.6619263,11.5609131
	c7.567749,7.7073364,11.3600464,19.0004883,11.3600464,33.8790894c0,14.3422241-3.7196655,25.4675903-11.1589966,33.3759766
	C156.0356445,246.9975586,145.7479858,250.9515991,132.6119995,250.9515991z"/>
<rect x="234" class="st1" width="116" height="295"/>
<path class="st0" d="M249.6119995,250.9515991c-5.7650146,0-10.946228-0.807251-15.6119995-2.3291016V295h43.9763794
	c18.3074341-3.8615112,33.4876709-11.4571533,45.4978027-22.8364258
	c18.1794434-17.2241211,27.2719116-38.1012573,27.2719116-62.6306152c0-16.3532104-3.6414795-31.1645508-10.9076538-44.4345703
	c-7.2717896-13.2703247-18.1179199-23.9265137-32.5217285-31.968689
	c14.0743408-8.0427246,23.2226562-17.5259399,27.4448853-28.4505005c4.22229-10.9243164,6.3334961-21.1449585,6.3334961-30.6619263
	c0-21.1784668-7.9978027-39.2404785-23.9821167-54.1860962C306.536377,9.9419556,293.0582275,3.3457642,276.7175293,0H234
	v46.1200562c4.5352783-1.6402588,9.7045288-2.4631348,15.5114746-2.4631348c11.6895142,0,20.7316895,3.2506714,27.1154175,9.75177
	c6.383728,6.5008545,9.5784302,15.5150146,9.5784302,27.0426636c0,10.5892334-3.1947021,19.2348022-9.5784302,25.9369507
	s-15.4259033,10.0531006-27.1154175,10.0531006c-5.8069458,0-10.9761963-0.8483276-15.5114746-2.5390015v48.7153931
	c4.687439-1.5337524,9.8717041-2.3449097,15.6119995-2.3449097c12.867981,0,23.088623,3.8535156,30.6619263,11.5609131
	c7.567749,7.7073364,11.3600464,19.0004883,11.3600464,33.8790894c0,14.3422241-3.7196655,25.4675903-11.1589966,33.3759766
	C273.0356445,246.9975586,262.7479858,250.9515991,249.6119995,250.9515991z"/>
</svg>
